<svg width="36" height="36" viewBox="0 0 36 36" fill="none" xmlns="http://www.w3.org/2000/svg">
<rect width="36" height="36" rx="7" fill="white"/>
<path d="M24.6 14.75C21.615 14.75 19.2 17.2656 19.2 20.375C19.2 23.4844 21.615 26 24.6 26C27.585 26 30 23.4844 30 20.375C30 17.2656 27.585 14.75 24.6 14.75ZM27 20.6211C27 20.8281 26.835 21 26.6362 21H24.3638C24.165 21 24 20.8281 24 20.6211V17.6289C24 17.4219 24.165 17.25 24.3638 17.25H24.8363C25.035 17.25 25.2 17.4219 25.2 17.6289V19.75H26.6362C26.835 19.75 27 19.9219 27 20.1289V20.6211ZM18 20.375C18 19.2891 18.2513 18.2617 18.6825 17.3477C18.3825 17.2891 18.075 17.25 17.76 17.25H17.1337C16.3013 17.6484 15.375 17.875 14.4 17.875C13.425 17.875 12.5025 17.6484 11.6663 17.25H11.04C8.2575 17.25 6 19.6016 6 22.5V24.125C6 25.1602 6.80625 26 7.8 26H20.8163C19.1175 24.7539 18 22.6992 18 20.375ZM14.4 16C17.0513 16 19.2 13.7617 19.2 11C19.2 8.23828 17.0513 6 14.4 6C11.7488 6 9.6 8.23828 9.6 11C9.6 13.7617 11.7488 16 14.4 16Z" fill="#171717"/>
</svg>
