<svg width="36" height="36" viewBox="0 0 36 36" fill="none" xmlns="http://www.w3.org/2000/svg">
<rect width="36" height="36" rx="7" fill="white"/>
<path d="M21.7497 11.7499C21.7497 9.67887 20.0709 8 17.9998 8C15.9288 8 14.2499 9.67887 14.2499 11.7499C14.2499 13.821 15.9288 15.4999 17.9998 15.4999C20.0709 15.4999 21.7497 13.821 21.7497 11.7499ZM17.1244 17.4178C14.8069 15.9991 11.0531 15.6092 9.16404 15.5018C8.52929 15.4659 8 15.9495 8 16.56V25.2629C8 25.8227 8.45273 26.2895 9.03475 26.3196C10.7402 26.409 14.1905 26.7367 16.5752 27.9379C16.9412 28.1223 17.3752 27.8711 17.3752 27.4742V17.8654C17.3748 17.683 17.2846 17.5158 17.1244 17.4178ZM26.8356 15.5018C24.9469 15.6088 21.1927 15.9991 18.8756 17.4178C18.7154 17.5158 18.6252 17.6897 18.6252 17.8721V27.4731C18.6252 27.8711 19.0603 28.1227 19.4275 27.9379C21.8118 26.7379 25.2602 26.4102 26.9653 26.3207C27.5473 26.2903 28 25.8235 28 25.2637V16.56C27.9996 15.9495 27.4703 15.4659 26.8356 15.5018Z" fill="black"/>
</svg>
