<svg width="36" height="36" viewBox="0 0 36 36" fill="none" xmlns="http://www.w3.org/2000/svg">
<rect width="36" height="36" rx="7" fill="white"/>
<rect width="36" height="36" rx="7" stroke="#E7E7E7"/>
<path d="M15 18C17.2094 18 19 16.2094 19 14C19 11.7906 17.2094 10 15 10C12.7906 10 11 11.7906 11 14C11 16.2094 12.7906 18 15 18ZM17.8 19H17.2781C16.5844 19.3188 15.8125 19.5 15 19.5C14.1875 19.5 13.4187 19.3188 12.7219 19H12.2C9.88125 19 8 20.8813 8 23.2V24.5C8 25.3281 8.67187 26 9.5 26H20.5C21.3281 26 22 25.3281 22 24.5V23.2C22 20.8813 20.1187 19 17.8 19ZM27.8937 14.9875L27.025 14.1094C26.8812 13.9625 26.6469 13.9625 26.5 14.1062L23.225 17.3562L21.8031 15.925C21.6594 15.7781 21.425 15.7781 21.2781 15.9219L20.4 16.7937C20.2531 16.9375 20.2531 17.1719 20.3969 17.3187L22.95 19.8906C23.0937 20.0375 23.3281 20.0375 23.475 19.8938L27.8906 15.5125C28.0344 15.3656 28.0375 15.1313 27.8937 14.9875Z" fill="black"/>
</svg>
