<svg width="6" height="7" viewBox="0 0 6 7" fill="none" xmlns="http://www.w3.org/2000/svg">
<path d="M6 5.25C5.62473 5.25 5.58134 4.8125 5.00223 4.8125C4.42058 4.8125 4.37511 5.25 4.00112 5.25C3.6302 5.25 3.57986 4.8125 3 4.8125C2.42622 4.8125 2.36762 5.25 2.00223 5.25C1.62525 5.25 1.58435 4.8125 1.00112 4.8125C0.417897 4.8125 0.376299 5.25 0 5.25V4.15625C0 3.79395 0.287946 3.5 0.642857 3.5H0.857143V1.53125H1.71429V3.5H2.57143V1.53125H3.42857V3.5H4.28571V1.53125H5.14286V3.5H5.35714C5.71205 3.5 6 3.79395 6 4.15625V5.25ZM6 7H0V5.6875C0.580661 5.6875 0.626344 5.25 1.00112 5.25C1.37546 5.25 1.41968 5.6875 2.00223 5.6875C2.57602 5.6875 2.6346 5.25 3 5.25C3.37698 5.25 3.41787 5.6875 4.00112 5.6875C4.58179 5.6875 4.62746 5.25 5.00223 5.25C5.37038 5.25 5.42079 5.6875 6 5.6875V7ZM1.28571 1.3125C1.04799 1.3125 0.857143 1.11768 0.857143 0.875C0.857143 0.451172 1.28571 0.560547 1.28571 0C1.44643 0 1.71429 0.40332 1.71429 0.765625C1.71429 1.12793 1.52344 1.3125 1.28571 1.3125ZM3 1.3125C2.76228 1.3125 2.57143 1.11768 2.57143 0.875C2.57143 0.451172 3 0.560547 3 0C3.16071 0 3.42857 0.40332 3.42857 0.765625C3.42857 1.12793 3.23772 1.3125 3 1.3125ZM4.71429 1.3125C4.47656 1.3125 4.28571 1.11768 4.28571 0.875C4.28571 0.451172 4.71429 0.560547 4.71429 0C4.875 0 5.14286 0.40332 5.14286 0.765625C5.14286 1.12793 4.95201 1.3125 4.71429 1.3125Z" fill="#FA528A"/>
</svg>
