<svg width="36" height="36" viewBox="0 0 36 36" fill="none" xmlns="http://www.w3.org/2000/svg">
<rect width="36" height="36" rx="7" fill="white"/>
<path d="M26 21.25C24.9993 21.25 24.8836 20.3125 23.3393 20.3125C21.7882 20.3125 21.667 21.25 20.6696 21.25C19.6805 21.25 19.5463 20.3125 18 20.3125C16.4699 20.3125 16.3136 21.25 15.3393 21.25C14.334 21.25 14.2249 20.3125 12.6696 20.3125C11.1144 20.3125 11.0035 21.25 10 21.25V18.9062C10 18.1299 10.7679 17.5 11.7143 17.5H12.2857V13.2812H14.5714V17.5H16.8571V13.2812H19.1429V17.5H21.4286V13.2812H23.7143V17.5H24.2857C25.2321 17.5 26 18.1299 26 18.9062V21.25ZM26 25H10V22.1875C11.5484 22.1875 11.6703 21.25 12.6696 21.25C13.6679 21.25 13.7858 22.1875 15.3393 22.1875C16.8694 22.1875 17.0256 21.25 18 21.25C19.0053 21.25 19.1143 22.1875 20.6696 22.1875C22.2181 22.1875 22.3399 21.25 23.3393 21.25C24.321 21.25 24.4554 22.1875 26 22.1875V25ZM13.4286 12.8125C12.7946 12.8125 12.2857 12.395 12.2857 11.875C12.2857 10.9668 13.4286 11.2012 13.4286 10C13.8571 10 14.5714 10.8643 14.5714 11.6406C14.5714 12.417 14.0625 12.8125 13.4286 12.8125ZM18 12.8125C17.3661 12.8125 16.8571 12.395 16.8571 11.875C16.8571 10.9668 18 11.2012 18 10C18.4286 10 19.1429 10.8643 19.1429 11.6406C19.1429 12.417 18.6339 12.8125 18 12.8125ZM22.5714 12.8125C21.9375 12.8125 21.4286 12.395 21.4286 11.875C21.4286 10.9668 22.5714 11.2012 22.5714 10C23 10 23.7143 10.8643 23.7143 11.6406C23.7143 12.417 23.2054 12.8125 22.5714 12.8125Z" fill="#030303"/>
</svg>
