<svg width="36" height="36" viewBox="0 0 36 36" fill="none" xmlns="http://www.w3.org/2000/svg">
<rect width="36" height="36" rx="7" fill="white"/>
<path d="M14.6365 9.77273C14.6365 9.34596 14.9824 9 15.4092 9V9C15.836 9 16.1819 9.34596 16.1819 9.77273V13.6364H14.6365V9.77273Z" fill="black"/>
<path d="M20.8181 9.77273C20.8181 9.34596 21.1641 9 21.5908 9V9C22.0176 9 22.3636 9.34596 22.3636 9.77273V13.6364H20.8181V9.77273Z" fill="black"/>
<path fill-rule="evenodd" clip-rule="evenodd" d="M14 12.0909C11.7909 12.0909 10 13.8818 10 16.0909V16.7273H27V16.0909C27 13.8818 25.2091 12.0909 23 12.0909H14ZM27 18.2727H10V23.5455C10 25.7546 11.7909 27.5455 14 27.5455H23C25.2091 27.5455 27 25.7546 27 23.5455V18.2727Z" fill="black"/>
</svg>
