<svg width="20" height="20" viewBox="0 0 20 20" fill="none" xmlns="http://www.w3.org/2000/svg">
<circle cx="10" cy="10" r="10" fill="#FDE3E3"/>
<path d="M14.7148 12.0664L12.5273 11.1288C12.4338 11.089 12.33 11.0806 12.2313 11.1049C12.1327 11.1292 12.0446 11.1849 11.9804 11.2636L11.0116 12.4472C9.49124 11.7304 8.26767 10.5068 7.55083 8.98641L8.73444 8.01765C8.81328 7.95352 8.86909 7.86545 8.89341 7.76677C8.91772 7.6681 8.90923 7.56418 8.86921 7.47076L7.93169 5.28323C7.88777 5.18252 7.81008 5.1003 7.71203 5.05074C7.61398 5.00118 7.50171 4.98739 7.39457 5.01174L5.36329 5.4805C5.26 5.50435 5.16784 5.5625 5.10186 5.64548C5.03588 5.72845 4.99998 5.83133 5 5.93734C5 10.9472 9.06062 15 14.0627 15C14.1687 15.0001 14.2716 14.9642 14.3546 14.8982C14.4377 14.8322 14.4958 14.74 14.5197 14.6367L14.9885 12.6054C15.0126 12.4978 14.9986 12.385 14.9486 12.2867C14.8987 12.1883 14.816 12.1104 14.7148 12.0664Z" fill="#DF7373"/>
</svg>
