<svg width="24" height="24" viewBox="0 0 24 24" fill="none" xmlns="http://www.w3.org/2000/svg">
<path d="M7.55255 16.9985C7.14521 16.5911 7.35755 16.706 6.37506 16.443C5.92928 16.3235 5.53741 16.0938 5.18304 15.8187L3.05634 21.033C2.85056 21.5378 3.23493 22.0863 3.77962 22.0656L6.24943 21.9714L7.94817 23.7658C8.32316 24.1614 8.98128 24.0381 9.18706 23.5333L11.6269 17.5511C11.1188 17.8343 10.5549 18.0002 9.97174 18.0002C9.05769 18.0002 8.19895 17.6444 7.55255 16.9985ZM20.9437 21.033L18.817 15.8187C18.4626 16.0943 18.0707 16.3235 17.6249 16.443C16.6373 16.7074 16.8539 16.5921 16.4475 16.9985C15.8011 17.6444 14.9418 18.0002 14.0278 18.0002C13.4447 18.0002 12.8808 17.8338 12.3727 17.5511L14.8125 23.5333C15.0183 24.0381 15.6768 24.1614 16.0514 23.7658L17.7506 21.9714L20.2204 22.0656C20.7651 22.0863 21.1494 21.5374 20.9437 21.033ZM15.3281 15.9377C16.0443 15.2088 16.1264 15.2716 17.1464 14.9937C17.7974 14.816 18.3065 14.298 18.4809 13.6352C18.8315 12.304 18.7406 12.4648 19.6973 11.4907C20.174 11.0056 20.3601 10.2982 20.1857 9.63544C19.8355 8.30514 19.8351 8.49076 20.1857 7.15906C20.3601 6.49625 20.174 5.78891 19.6973 5.30376C18.7406 4.32971 18.8315 4.49002 18.4809 3.15925C18.3065 2.49645 17.7974 1.97848 17.1464 1.80083C15.8395 1.44411 15.997 1.53739 15.0393 0.562872C14.5626 0.0777209 13.8675 -0.112121 13.2164 0.0655335C11.91 0.42178 12.0923 0.422249 10.7836 0.0655335C10.1325 -0.112121 9.43737 0.0772522 8.96066 0.562872C8.00395 1.53693 8.16145 1.44411 6.85412 1.80083C6.20303 1.97848 5.69397 2.49645 5.5196 3.15925C5.16945 4.49002 5.25991 4.32971 4.3032 5.30376C3.82649 5.78891 3.63993 6.49625 3.81477 7.15906C4.16492 8.48842 4.16539 8.30279 3.81477 9.63497C3.6404 10.2978 3.82649 11.0051 4.3032 11.4907C5.25991 12.4648 5.16898 12.304 5.5196 13.6352C5.69397 14.298 6.20303 14.816 6.85412 14.9937C7.90317 15.2796 7.98145 15.2346 8.67191 15.9377C9.29206 16.5691 10.2581 16.6821 11.0034 16.2105C11.3015 16.0213 11.6472 15.9208 12.0002 15.9208C12.3533 15.9208 12.699 16.0213 12.997 16.2105C13.7419 16.6821 14.7079 16.5691 15.3281 15.9377ZM7.57786 8.24842C7.57786 5.76266 9.55784 3.74753 12 3.74753C14.4422 3.74753 16.4221 5.76266 16.4221 8.24842C16.4221 10.7342 14.4422 12.7493 12 12.7493C9.55784 12.7493 7.57786 10.7342 7.57786 8.24842Z" fill="white"/>
</svg>
