<svg width="15" height="20" viewBox="0 0 15 20" fill="none" xmlns="http://www.w3.org/2000/svg">
<path d="M14.4375 2.85714C14.7481 2.85714 15 2.61728 15 2.32143V0.535714C15 0.239866 14.7481 0 14.4375 0H0.5625C0.251859 0 0 0.239866 0 0.535714V2.53339C0 2.82924 0.251859 3.06911 0.5625 3.06911H4.56C5.84006 3.06911 6.82223 3.51366 7.41797 4.28571H0.5625C0.251859 4.28571 0 4.52558 0 4.82143V6.60714C0 6.90299 0.251859 7.14286 0.5625 7.14286H8.00423C7.71281 8.75384 6.45919 9.76036 4.5 9.76036H0.5625C0.251859 9.76036 0 10.0002 0 10.2961V12.6627C0 12.8122 0.065625 12.9549 0.180984 13.0563L7.9178 19.8579C8.0217 19.9493 8.15792 20 8.29931 20H12.1694C12.6815 20 12.9272 19.4014 12.5509 19.0706L5.47833 12.8529C9.06422 12.7485 11.6257 10.4692 11.962 7.14286H14.4375C14.7481 7.14286 15 6.90299 15 6.60714V4.82143C15 4.52558 14.7481 4.28571 14.4375 4.28571H11.6864C11.523 3.77049 11.2983 3.29259 11.0183 2.85714H14.4375Z" fill="#01329C"/>
</svg>
