<svg width="23" height="20" viewBox="0 0 23 20" fill="none" xmlns="http://www.w3.org/2000/svg">
<path d="M1.37109 1H7.41743C8.48648 1 9.51176 1.42143 10.2677 2.17157C11.0236 2.92172 11.4483 3.93913 11.4483 5V19C11.4483 18.2044 11.1298 17.4413 10.5628 16.8787C9.9959 16.3161 9.22694 16 8.42515 16H1.37109V1Z" stroke="black" stroke-width="2" stroke-linecap="round" stroke-linejoin="round"/>
<path d="M21.5264 1H15.4801C14.411 1 13.3858 1.42143 12.6298 2.17157C11.8739 2.92172 11.4492 3.93913 11.4492 5V19C11.4492 18.2044 11.7677 17.4413 12.3347 16.8787C12.9016 16.3161 13.6706 16 14.4724 16H21.5264V1Z" stroke="black" stroke-width="2" stroke-linecap="round" stroke-linejoin="round"/>
</svg>
