<svg width="22" height="22" viewBox="0 0 22 22" fill="none" xmlns="http://www.w3.org/2000/svg">
<circle cx="11" cy="11" r="10" stroke="#fff" stroke-width="2"/>
<path d="M15.4857 8L8.43164 15" stroke="#fff" stroke-width="1.5" stroke-linecap="round" stroke-linejoin="round"/>
<path d="M9.43936 9C9.99591 9 10.4471 8.55228 10.4471 8C10.4471 7.44772 9.99591 7 9.43936 7C8.88281 7 8.43164 7.44772 8.43164 8C8.43164 8.55228 8.88281 9 9.43936 9Z" stroke="#fff" stroke-linecap="round" stroke-linejoin="round"/>
<path d="M14.4784 15C15.035 15 15.4861 14.5523 15.4861 14C15.4861 13.4477 15.035 13 14.4784 13C13.9219 13 13.4707 13.4477 13.4707 14C13.4707 14.5523 13.9219 15 14.4784 15Z" stroke="#fff" stroke-linecap="round" stroke-linejoin="round"/>
</svg>
