<svg width="36" height="36" viewBox="0 0 36 36" fill="none" xmlns="http://www.w3.org/2000/svg">
<rect width="36" height="36" rx="7" fill="white"/>
<path d="M8 23.832V25.5C8 26.8789 11.3594 28 15.5 28C19.6406 28 23 26.8789 23 25.5V23.832C21.3867 24.9687 18.4375 25.5 15.5 25.5C12.5625 25.5 9.61328 24.9687 8 23.832ZM20.5 13C24.6406 13 28 11.8789 28 10.5C28 9.12109 24.6406 8 20.5 8C16.3594 8 13 9.12109 13 10.5C13 11.8789 16.3594 13 20.5 13ZM8 19.7344V21.75C8 23.1289 11.3594 24.25 15.5 24.25C19.6406 24.25 23 23.1289 23 21.75V19.7344C21.3867 21.0625 18.4336 21.75 15.5 21.75C12.5664 21.75 9.61328 21.0625 8 19.7344ZM24.25 20.1641C26.4883 19.7305 28 18.9258 28 18V16.332C27.0937 16.9727 25.7617 17.4102 24.25 17.6797V20.1641ZM15.5 14.25C11.3594 14.25 8 15.6484 8 17.375C8 19.1016 11.3594 20.5 15.5 20.5C19.6406 20.5 23 19.1016 23 17.375C23 15.6484 19.6406 14.25 15.5 14.25ZM24.0664 16.4492C26.4102 16.0273 28 15.1992 28 14.25V12.582C26.6133 13.5625 24.2305 14.0898 21.7227 14.2148C22.875 14.7734 23.7227 15.5234 24.0664 16.4492Z" fill="black"/>
</svg>
