<svg width="14" height="13" viewBox="0 0 14 13" fill="none" xmlns="http://www.w3.org/2000/svg">
<path d="M9.78542 2.01979L11.9778 4.21215C12.0701 4.30451 12.0701 4.45521 11.9778 4.54757L6.66944 9.8559L4.41389 10.1062C4.1125 10.1403 3.85729 9.88507 3.89132 9.58368L4.14167 7.32813L9.45 2.01979C9.54236 1.92743 9.69306 1.92743 9.78542 2.01979ZM13.7229 1.46319L12.5368 0.277083C12.1674 -0.0923611 11.567 -0.0923611 11.1951 0.277083L10.3347 1.1375C10.2424 1.22986 10.2424 1.38056 10.3347 1.47292L12.5271 3.66528C12.6194 3.75764 12.7701 3.75764 12.8625 3.66528L13.7229 2.80486C14.0924 2.43299 14.0924 1.83264 13.7229 1.46319ZM9.33333 8.41215V10.8865H1.55556V3.10868H7.14097C7.21875 3.10868 7.29167 3.07708 7.34757 3.02361L8.31979 2.05139C8.50451 1.86667 8.37326 1.55313 8.11319 1.55313H1.16667C0.522569 1.55313 0 2.07569 0 2.71979V11.2753C0 11.9194 0.522569 12.442 1.16667 12.442H9.72222C10.3663 12.442 10.8889 11.9194 10.8889 11.2753V7.43993C10.8889 7.17986 10.5753 7.05104 10.3906 7.23333L9.4184 8.20556C9.36493 8.26146 9.33333 8.33438 9.33333 8.41215Z" fill="white"/>
</svg>
