<svg width="14" height="13" viewBox="0 0 14 13" fill="none" xmlns="http://www.w3.org/2000/svg">
<path d="M9.33414 2.9631C9.33414 2.80997 9.27337 2.66169 9.16399 2.5523L6.78427 0.170154C6.67488 0.0607692 6.52661 0 6.37104 0H6.22276V3.11138H9.33414V2.9631ZM13.8797 7.48676L11.5534 5.1435C11.3079 4.89799 10.8874 5.07058 10.8874 5.41818V7.00061H9.33171V8.5563H10.8874V10.1412C10.8874 10.4888 11.3079 10.6613 11.5534 10.4158L13.8797 8.07014C14.0401 7.90971 14.0401 7.64719 13.8797 7.48676ZM4.66707 8.16737V7.38953C4.66707 7.17562 4.84209 7.00061 5.05599 7.00061H9.33414V3.88923H6.0283C5.70744 3.88923 5.44492 3.6267 5.44492 3.30584V0H0.583384C0.260092 0 0 0.260092 0 0.583384V11.8621C0 12.1854 0.260092 12.4455 0.583384 12.4455H8.75076C9.07405 12.4455 9.33414 12.1854 9.33414 11.8621V8.5563H5.05599C4.84209 8.5563 4.66707 8.38128 4.66707 8.16737Z" fill="#fff"/>
</svg>
