<svg width="23" height="25" viewBox="0 0 23 25" fill="none" xmlns="http://www.w3.org/2000/svg">
<path d="M10.761 15.0625H12.0251L11.3931 16.1601L10.761 15.0625ZM10.0042 23.6682L11.3931 17.8109L12.7819 23.6682L14.7247 23.6816L16.8629 15.1853C19.4635 15.6797 21.415 17.9263 21.415 20.625V22.6562C21.415 23.3907 20.8121 24 20.0532 24H2.73294C1.97402 24 1.37109 23.3907 1.37109 22.6562V20.625C1.37109 17.9263 3.32256 15.6797 5.92322 15.1853L8.06144 23.6816L10.0042 23.6682ZM16.6913 6.25C16.6913 9.14262 14.3268 11.5 11.3931 11.5C8.45927 11.5 6.09479 9.14262 6.09479 6.25C6.09479 3.35737 8.45927 1 11.3931 1C14.3268 1 16.6913 3.35738 16.6913 6.25Z" stroke="black" stroke-width="2"/>
</svg>
