<svg width="22" height="22" viewBox="0 0 22 22" fill="none" xmlns="http://www.w3.org/2000/svg">
<rect x="0.5" y="0.5" width="21" height="21" rx="5.5" fill="white" stroke="#91C47B"/>
<path d="M11.7776 8.40742C11.816 8.41668 11.8503 8.43876 11.8753 8.47023C11.9003 8.5017 11.9145 8.5408 11.9157 8.58145C11.9157 8.68027 11.8305 8.76191 11.7257 8.76191H11.6921H11.6812H11.5078H11.4696C11.474 8.76844 11.4787 8.77483 11.4837 8.78107C11.524 8.83185 11.5804 8.87078 11.6465 8.88982C11.651 8.89114 11.6557 8.89236 11.6603 8.89348L11.6534 8.89181L11.6464 8.88993L11.1754 8.76191H10.984C10.9041 8.76168 10.825 8.74563 10.7509 8.71465C10.6418 8.66738 10.5159 8.67812 10.4322 8.75762L10.0363 9.13359C10.018 9.15012 10.0022 9.16938 9.98948 9.19074M11.7776 8.40742L11.9087 7.92492L11.904 7.92365M11.7776 8.40742L11.8948 7.92136C11.8979 7.9221 11.9009 7.92286 11.904 7.92365M11.7776 8.40742L11.7257 8.39333L11.5242 8.33857C11.5819 8.28886 11.6554 8.26191 11.7257 8.26191H11.2421L10.647 8.1002L11.4912 6.73809M11.904 7.92365C12.049 7.96078 12.1758 8.04458 12.2669 8.15939C12.3598 8.27637 12.4111 8.41958 12.4155 8.56652L12.4157 8.57398V8.58145C12.4157 8.9791 12.0834 9.26191 11.7257 9.26191H10.984H10.9825C10.8779 9.2616 10.7742 9.24645 10.6744 9.21718M11.904 7.92365L10.7792 7.61801C10.7791 7.61797 10.7789 7.61793 10.7788 7.61789C10.4299 7.52201 10.2063 7.26485 10.1725 7.00991C10.1231 6.63307 10.406 6.26857 10.8476 6.21872L11.2915 6.16861V5.72187V5.5H11.3771V5.72445V6.17408L11.8243 6.22165C11.8899 6.22863 11.9548 6.24105 12.0184 6.25872L11.9931 6.28282C11.8927 6.25341 11.7885 6.23825 11.6834 6.23809H11.6826H10.9409C10.5832 6.23809 10.2509 6.5209 10.2509 6.91855V6.92602L10.2511 6.93348C10.2555 7.08043 10.3068 7.22363 10.3997 7.34061C10.4908 7.45542 10.6176 7.53922 10.7626 7.57635M10.6744 9.21718L10.7764 9.12027M10.6744 9.21718C10.6349 9.20561 10.596 9.19184 10.558 9.17591L10.5522 9.17352L10.5523 9.17349C10.554 9.17424 10.5559 9.17501 10.558 9.17578C10.5954 9.18945 10.6891 9.20312 10.7764 9.12027M10.6744 9.21718L10.6484 9.24182M10.7764 9.12027L10.7765 9.12014L10.641 8.97745L10.6383 8.97466L10.4323 8.75778L10.6383 8.97477L10.6409 8.97756L10.7764 9.12027ZM10.6484 9.24182C10.5384 9.21127 10.4324 9.16496 10.3334 9.10375L10.3332 9.10359C10.3632 9.12214 10.3883 9.14599 10.4077 9.17307C10.4271 9.20011 10.4405 9.23003 10.4479 9.26094C10.4553 9.29184 10.4567 9.32373 10.452 9.35498C10.4473 9.38625 10.4366 9.41692 10.4199 9.44519L10.2202 9.32712L10.206 9.31876L10.2051 9.31822L10.2048 9.31805L10.2019 9.31631L10.2018 9.31623L10.2006 9.31555L9.98948 9.19074M10.6484 9.24182C10.7119 9.25944 10.7766 9.27181 10.8421 9.27878L11.2893 9.32635V9.77598V10H11.3751V9.77812V9.33133L11.819 9.28127C12.261 9.23145 12.5433 8.86737 12.4939 8.49019C12.4599 8.23458 12.2369 7.97788 11.888 7.88217C11.8879 7.88213 11.8877 7.88209 11.8876 7.88205M10.6484 9.24182L10.3807 9.49612L10.3715 9.50486L10.3714 9.50475C10.3745 9.5019 10.3776 9.49898 10.3806 9.49601C10.3955 9.48113 10.4082 9.46471 10.4187 9.44726L10.2235 9.33061L10.2043 9.31916L10.204 9.31898L10.2033 9.31855L10.2017 9.31758L10.2013 9.31732L10.2011 9.31725L9.98948 9.19074M9.98948 9.19074C9.97313 9.21839 9.96226 9.24909 9.95748 9.28109C9.9527 9.31309 9.9541 9.34575 9.96162 9.37718C9.96913 9.40862 9.9826 9.43821 10.0013 9.46425C10.0199 9.49029 10.0434 9.51226 10.0703 9.52891C10.2895 9.66458 10.5349 9.74892 10.7893 9.77598V10.1562C10.7893 10.3453 10.9524 10.5 11.1511 10.5H11.513C11.7119 10.5 11.8751 10.3453 11.8751 10.1562V9.77812C12.5611 9.70078 13.08 9.11211 12.9896 8.42461C12.924 7.93047 12.5217 7.5373 12.0196 7.3998L11.4245 7.23809H10.9409C11.0112 7.23809 11.0847 7.21114 11.1424 7.16143L10.9409 7.10667L10.889 7.09258M11.4912 6.73809H11.6826H11.4912ZM11.4912 6.73809L11.0202 6.61008L11.0132 6.60819L11.0063 6.60651C11.0109 6.60764 11.0155 6.60886 11.0201 6.61018C11.0862 6.62923 11.1426 6.66815 11.1829 6.71893C11.1879 6.72517 11.1926 6.73156 11.197 6.73809H11.1588H10.9854H10.9745H10.9409C10.8361 6.73809 10.7509 6.81973 10.7509 6.91855C10.7521 6.9592 10.7663 6.9983 10.7913 7.02977C10.8163 7.06124 10.8506 7.08332 10.889 7.09258M10.889 7.09258L10.7579 7.57508L10.7626 7.57635M10.889 7.09258L11.8876 7.88205M10.7626 7.57635L11.8876 7.88205M10.7626 7.57635L11.8876 7.88205M16.4452 12.4241L16.4347 12.4142C16.4141 12.3949 16.3847 12.3817 16.3431 12.3822C16.299 12.3827 16.2494 12.3994 16.2084 12.4334L16.2069 12.4348L14.2825 14.022L16.4452 12.4241ZM16.4452 12.4241C16.461 12.4402 16.4744 12.4601 16.4841 12.4831C16.4951 12.5093 16.5007 12.5384 16.4999 12.568C16.4992 12.5977 16.4922 12.6262 16.4799 12.6516C16.4677 12.677 16.4509 12.698 16.4316 12.7139L16.4315 12.7139L13.2812 15.3133C13.2812 15.3134 13.2812 15.3134 13.2812 15.3134C13.133 15.4354 12.9514 15.5001 12.7663 15.5H12.7659H5.5V13.75H6.48747H6.66899L6.80824 13.6335L7.77697 12.8234L7.77705 12.8233C8.12486 12.5323 8.55667 12.3752 8.99991 12.375C8.99996 12.375 9 12.375 9.00005 12.375H12.3332C12.3723 12.375 12.413 12.3909 12.4455 12.4243C12.4785 12.4583 12.4997 12.5076 12.4998 12.5621L12.4998 12.5631C12.4999 12.574 12.499 12.5848 12.4972 12.5955L12.4972 12.5955L12.4963 12.601C12.4907 12.6364 12.4716 12.6716 12.4348 12.7012C12.3964 12.7321 12.3465 12.75 12.2976 12.75H10.6665C10.4405 12.75 10.2269 12.8428 10.0719 13.0026C9.91739 13.1619 9.83322 13.3749 9.83322 13.5938C9.83322 13.8126 9.91739 14.0256 10.0719 14.1849C10.2269 14.3447 10.4405 14.4375 10.6665 14.4375H13.1297H13.1304V13.9375M16.4452 12.4241L14.2819 14.0224L13.9638 13.6367C13.7275 13.8322 13.4334 13.9384 13.1304 13.9375M13.1304 13.9375H10.6665C10.5781 13.9375 10.4934 13.9013 10.4308 13.8368C10.3683 13.7724 10.3332 13.6849 10.3332 13.5938C10.3332 13.5026 10.3683 13.4151 10.4308 13.3507C10.4934 13.2862 10.5781 13.25 10.6665 13.25H12.2976C12.6288 13.25 12.9373 13.0158 12.9902 12.6785C12.9968 12.6398 13 12.6005 12.9998 12.5612M13.1304 13.9375L12.9998 12.5612M12.9998 12.5612C12.9995 12.3791 12.9291 12.2046 12.8041 12.0759C12.6791 11.9473 12.5098 11.875 12.3332 11.875H8.99991C8.43776 11.8752 7.89274 12.0746 7.4562 12.4398L12.9998 12.5612Z" stroke="#91C47B"/>
</svg>
