<svg width="22" height="22" viewBox="0 0 22 22" fill="none" xmlns="http://www.w3.org/2000/svg">
<circle cx="11" cy="11" r="10" stroke="#fff" stroke-width="2"/>
<path d="M15.2212 8.4C15.3673 8.4 15.4857 8.28247 15.4857 8.1375V7.2625C15.4857 7.11753 15.3673 7 15.2212 7H8.69617C8.55008 7 8.43164 7.11753 8.43164 7.2625V8.24136C8.43164 8.38633 8.55008 8.50386 8.69617 8.50386H10.5761C11.178 8.50386 11.6399 8.72169 11.9201 9.1H8.69617C8.55008 9.1 8.43164 9.21753 8.43164 9.3625V10.2375C8.43164 10.3825 8.55008 10.5 8.69617 10.5H12.1958C12.0587 11.2894 11.4692 11.7826 10.5479 11.7826H8.69617C8.55008 11.7826 8.43164 11.9001 8.43164 12.0451V13.2047C8.43164 13.278 8.4625 13.3479 8.51675 13.3976L12.1551 16.7304C12.204 16.7751 12.2681 16.8 12.3346 16.8H14.1546C14.3954 16.8 14.5109 16.5067 14.334 16.3446L11.0079 13.2979C12.6943 13.2468 13.8989 12.1299 14.057 10.5H15.2212C15.3673 10.5 15.4857 10.3825 15.4857 10.2375V9.3625C15.4857 9.21753 15.3673 9.1 15.2212 9.1H13.9274C13.8506 8.84754 13.7449 8.61337 13.6132 8.4H15.2212Z" fill="#fff"/>
</svg>
