<svg width="36" height="36" viewBox="0 0 36 36" fill="none" xmlns="http://www.w3.org/2000/svg">
<rect width="36" height="36" rx="7" fill="white"/>
<path d="M19.3333 13.3125V8H11C10.4458 8 10 8.41797 10 8.9375V27.0625C10 27.582 10.4458 28 11 28H25C25.5542 28 26 27.582 26 27.0625V14.25H20.3333C19.7833 14.25 19.3333 13.8281 19.3333 13.3125ZM22 22.5312C22 22.7891 21.775 23 21.5 23H14.5C14.225 23 14 22.7891 14 22.5312V22.2188C14 21.9609 14.225 21.75 14.5 21.75H21.5C21.775 21.75 22 21.9609 22 22.2188V22.5312ZM22 20.0312C22 20.2891 21.775 20.5 21.5 20.5H14.5C14.225 20.5 14 20.2891 14 20.0312V19.7188C14 19.4609 14.225 19.25 14.5 19.25H21.5C21.775 19.25 22 19.4609 22 19.7188V20.0312ZM22 17.2188V17.5312C22 17.7891 21.775 18 21.5 18H14.5C14.225 18 14 17.7891 14 17.5312V17.2188C14 16.9609 14.225 16.75 14.5 16.75H21.5C21.775 16.75 22 16.9609 22 17.2188ZM26 12.7617V13H20.6667V8H20.9208C21.1875 8 21.4417 8.09766 21.6292 8.27344L25.7083 12.1016C25.8958 12.2773 26 12.5156 26 12.7617Z" fill="black"/>
</svg>
