<svg width="9" height="9" viewBox="0 0 9 9" fill="none" xmlns="http://www.w3.org/2000/svg">
<path d="M5.74124 3.25883C6.79148 4.31016 6.77706 5.9957 5.74756 7.03091C5.74563 7.03302 5.74335 7.03531 5.74124 7.03742L4.55999 8.21866C3.51813 9.26052 1.82309 9.26038 0.781392 8.21866C-0.260464 7.17699 -0.260464 5.48175 0.781392 4.44008L1.43365 3.78782C1.60661 3.61486 1.90449 3.72982 1.91342 3.97426C1.92481 4.28578 1.98068 4.59875 2.08376 4.90099C2.11867 5.00333 2.09372 5.11653 2.01726 5.193L1.78721 5.42304C1.29457 5.91569 1.27912 6.71785 1.76691 7.21531C2.25952 7.71767 3.0692 7.72066 3.56559 7.22427L4.74684 6.0432C5.24239 5.54765 5.24031 4.74669 4.74684 4.25322C4.68178 4.18829 4.61625 4.13784 4.56507 4.10259C4.52885 4.07773 4.49895 4.04474 4.47775 4.00627C4.45655 3.9678 4.44463 3.9249 4.44295 3.88101C4.43599 3.69526 4.5018 3.50385 4.64858 3.35707L5.01867 2.98697C5.11572 2.88992 5.26796 2.878 5.3805 2.95654C5.50938 3.04653 5.63009 3.14768 5.74124 3.25883ZM8.21861 0.781337C7.17691 -0.260375 5.48187 -0.260516 4.44002 0.781337L3.25877 1.96259C3.25666 1.96469 3.25437 1.96698 3.25244 1.96909C2.22296 3.0043 2.20852 4.68984 3.25877 5.74117C3.36991 5.85231 3.49061 5.95346 3.61949 6.04344C3.73202 6.12198 3.88428 6.11005 3.98131 6.01302L4.3514 5.64291C4.49818 5.49613 4.56399 5.30473 4.55703 5.11898C4.55535 5.07508 4.54343 5.03219 4.52223 4.99371C4.50103 4.95524 4.47113 4.92225 4.43492 4.89739C4.38373 4.86214 4.3182 4.81169 4.25314 4.74676C3.75967 4.25329 3.7576 3.45233 4.25314 2.95678L5.43439 1.77571C5.93078 1.27932 6.74045 1.28231 7.23307 1.78468C7.72087 2.28214 7.70543 3.0843 7.21277 3.57694L6.98273 3.80698C6.90626 3.88345 6.88132 3.99665 6.91623 4.09899C7.01931 4.40123 7.07517 4.71421 7.08656 5.02573C7.09551 5.27017 7.39337 5.38513 7.56634 5.21216L8.21859 4.55991C9.26047 3.51825 9.26047 1.82302 8.21861 0.781337Z" fill="white"/>
</svg>
