<svg width="14" height="11" viewBox="0 0 14 11" fill="none" xmlns="http://www.w3.org/2000/svg">
<path d="M1.3125 0C1.05291 0 0.799154 0.0744391 0.583315 0.213904C0.367475 0.353369 0.199249 0.551596 0.0999087 0.783517C0.000568688 1.01544 -0.0254232 1.27064 0.0252199 1.51685C0.075863 1.76305 0.200867 1.98921 0.384423 2.16671C0.567979 2.34422 0.801845 2.4651 1.05644 2.51407C1.31104 2.56305 1.57494 2.53791 1.81477 2.44185C2.0546 2.34578 2.25959 2.1831 2.4038 1.97438C2.54802 1.76565 2.625 1.52026 2.625 1.26923C2.625 0.93261 2.48672 0.609776 2.24058 0.371749C1.99444 0.133722 1.6606 0 1.3125 0ZM1.3125 4.23077C1.05291 4.23077 0.799154 4.30521 0.583315 4.44467C0.367475 4.58414 0.199249 4.78236 0.0999087 5.01429C0.000568688 5.24621 -0.0254232 5.50141 0.0252199 5.74761C0.075863 5.99382 0.200867 6.21998 0.384423 6.39748C0.567979 6.57499 0.801845 6.69587 1.05644 6.74484C1.31104 6.79382 1.57494 6.76868 1.81477 6.67262C2.0546 6.57655 2.25959 6.41387 2.4038 6.20515C2.54802 5.99642 2.625 5.75103 2.625 5.5C2.625 5.16338 2.48672 4.84054 2.24058 4.60252C1.99444 4.36449 1.6606 4.23077 1.3125 4.23077ZM1.3125 8.46154C1.05291 8.46154 0.799154 8.53598 0.583315 8.67544C0.367475 8.81491 0.199249 9.01313 0.0999087 9.24506C0.000568688 9.47698 -0.0254232 9.73218 0.0252199 9.97838C0.075863 10.2246 0.200867 10.4507 0.384423 10.6283C0.567979 10.8058 0.801845 10.9266 1.05644 10.9756C1.31104 11.0246 1.57494 10.9994 1.81477 10.9034C2.0546 10.8073 2.25959 10.6446 2.4038 10.4359C2.54802 10.2272 2.625 9.9818 2.625 9.73077C2.625 9.39415 2.48672 9.07131 2.24058 8.83329C1.99444 8.59526 1.6606 8.46154 1.3125 8.46154ZM13.5625 8.88461H4.8125C4.69647 8.88461 4.58519 8.92919 4.50314 9.00853C4.42109 9.08787 4.375 9.19549 4.375 9.30769V10.1538C4.375 10.2661 4.42109 10.3737 4.50314 10.453C4.58519 10.5323 4.69647 10.5769 4.8125 10.5769H13.5625C13.6785 10.5769 13.7898 10.5323 13.8719 10.453C13.9539 10.3737 14 10.2661 14 10.1538V9.30769C14 9.19549 13.9539 9.08787 13.8719 9.00853C13.7898 8.92919 13.6785 8.88461 13.5625 8.88461ZM13.5625 0.423077H4.8125C4.69647 0.423077 4.58519 0.467651 4.50314 0.546993C4.42109 0.626336 4.375 0.733947 4.375 0.846154V1.69231C4.375 1.80451 4.42109 1.91213 4.50314 1.99147C4.58519 2.07081 4.69647 2.11538 4.8125 2.11538H13.5625C13.6785 2.11538 13.7898 2.07081 13.8719 1.99147C13.9539 1.91213 14 1.80451 14 1.69231V0.846154C14 0.733947 13.9539 0.626336 13.8719 0.546993C13.7898 0.467651 13.6785 0.423077 13.5625 0.423077ZM13.5625 4.65385H4.8125C4.69647 4.65385 4.58519 4.69842 4.50314 4.77776C4.42109 4.8571 4.375 4.96472 4.375 5.07692V5.92308C4.375 6.03528 4.42109 6.1429 4.50314 6.22224C4.58519 6.30158 4.69647 6.34615 4.8125 6.34615H13.5625C13.6785 6.34615 13.7898 6.30158 13.8719 6.22224C13.9539 6.1429 14 6.03528 14 5.92308V5.07692C14 4.96472 13.9539 4.8571 13.8719 4.77776C13.7898 4.69842 13.6785 4.65385 13.5625 4.65385Z" fill="#fff"/>
</svg>
