<svg width="96" height="96" viewBox="0 0 96 96" fill="none" xmlns="http://www.w3.org/2000/svg">
<g filter="url(#filter0_d_666_930)">
<circle cx="48" cy="47" r="40" fill="#13926C"/>
</g>
<path d="M51.5 30H37.5C36.5717 30 35.6815 30.3687 35.0251 31.0251C34.3687 31.6815 34 32.5717 34 33.5V61.5C34 62.4283 34.3687 63.3185 35.0251 63.9749C35.6815 64.6313 36.5717 65 37.5 65H58.5C59.4283 65 60.3185 64.6313 60.9749 63.9749C61.6313 63.3185 62 62.4283 62 61.5V40.5L51.5 30Z" stroke="white" stroke-width="2" stroke-linecap="round" stroke-linejoin="round"/>
<path d="M51.5 30V40.5H62" stroke="white" stroke-width="2" stroke-linecap="round" stroke-linejoin="round"/>
<path d="M55 49.25H41" stroke="white" stroke-width="2" stroke-linecap="round" stroke-linejoin="round"/>
<path d="M55 56.25H41" stroke="white" stroke-width="2" stroke-linecap="round" stroke-linejoin="round"/>
<path d="M44.5 42.25H42.75H41" stroke="white" stroke-width="2" stroke-linecap="round" stroke-linejoin="round"/>
<defs>
<filter id="filter0_d_666_930" x="0.5" y="0.5" width="95" height="95" filterUnits="userSpaceOnUse" color-interpolation-filters="sRGB">
<feFlood flood-opacity="0" result="BackgroundImageFix"/>
<feColorMatrix in="SourceAlpha" type="matrix" values="0 0 0 0 0 0 0 0 0 0 0 0 0 0 0 0 0 0 127 0" result="hardAlpha"/>
<feOffset dy="1"/>
<feGaussianBlur stdDeviation="3.75"/>
<feComposite in2="hardAlpha" operator="out"/>
<feColorMatrix type="matrix" values="0 0 0 0 0 0 0 0 0 0 0 0 0 0 0 0 0 0 0.25 0"/>
<feBlend mode="normal" in2="BackgroundImageFix" result="effect1_dropShadow_666_930"/>
<feBlend mode="normal" in="SourceGraphic" in2="effect1_dropShadow_666_930" result="shape"/>
</filter>
</defs>
</svg>
