<svg width="18" height="13" viewBox="0 0 18 13" fill="none" xmlns="http://www.w3.org/2000/svg">
<mask id="path-1-inside-1_694_21" fill="white">
<path d="M17.1721 8.69717C17.2453 8.30056 17.2453 7.89552 17.1721 7.49892L17.8978 7.07981C17.9822 7.03199 18.0188 6.93354 17.9906 6.84072C17.8022 6.23316 17.4787 5.68185 17.0568 5.22618C16.9921 5.15586 16.888 5.13898 16.8036 5.1868L16.0779 5.6059C15.7714 5.34431 15.4198 5.14179 15.04 5.00678V4.16857C15.04 4.07293 14.9725 3.98855 14.8797 3.96886C14.2524 3.82822 13.6139 3.83384 13.0176 3.96886C12.9248 3.98855 12.8573 4.07293 12.8573 4.16857V5.00678C12.4776 5.14179 12.126 5.34431 11.8194 5.6059L11.0937 5.1868C11.0121 5.13898 10.9052 5.15586 10.8405 5.22618C10.4186 5.68185 10.0951 6.23316 9.90667 6.84072C9.87854 6.93354 9.91792 7.03199 9.99949 7.07981L10.7252 7.49892C10.6521 7.89552 10.6521 8.30056 10.7252 8.69717L9.99949 9.11627C9.91511 9.16409 9.87854 9.26254 9.90667 9.35536C10.0951 9.96293 10.4186 10.5114 10.8405 10.9699C10.9052 11.0402 11.0093 11.0571 11.0937 11.0093L11.8194 10.5902C12.126 10.8518 12.4776 11.0543 12.8573 11.1893V12.0275C12.8573 12.1232 12.9248 12.2075 13.0176 12.2272C13.6449 12.3679 14.2834 12.3622 14.8797 12.2272C14.9725 12.2075 15.04 12.1232 15.04 12.0275V11.1893C15.4198 11.0543 15.7714 10.8518 16.0779 10.5902L16.8036 11.0093C16.8852 11.0571 16.9921 11.0402 17.0568 10.9699C17.4787 10.5142 17.8022 9.96293 17.9906 9.35536C18.0188 9.26254 17.9794 9.16409 17.8978 9.11627L17.1721 8.69717ZM13.9515 9.46225C13.1976 9.46225 12.5873 8.84906 12.5873 8.09804C12.5873 7.34703 13.2005 6.73384 13.9515 6.73384C14.7025 6.73384 15.3157 7.34703 15.3157 8.09804C15.3157 8.84906 14.7053 9.46225 13.9515 9.46225ZM2.70028 5.39776C3.6932 5.39776 4.50047 4.59048 4.50047 3.59757C4.50047 2.60465 3.6932 1.79738 2.70028 1.79738C1.70737 1.79738 0.900095 2.60465 0.900095 3.59757C0.900095 4.59048 1.70737 5.39776 2.70028 5.39776ZM9.00095 6.29785C9.05439 6.29785 9.10502 6.28379 9.15847 6.28097C9.39193 5.6706 9.73509 5.09679 10.1795 4.6158C10.3877 4.39078 10.683 4.26139 10.9924 4.26139C11.1865 4.26139 11.3778 4.31202 11.5437 4.41047L11.7659 4.53985C11.7884 4.52579 11.8109 4.51454 11.8334 4.50047C12.0303 4.08981 12.1485 3.63413 12.1485 3.15033C12.1485 1.40921 10.7393 0 8.99814 0C7.25702 0 5.85062 1.4064 5.85062 3.14752C5.85062 4.88864 7.25983 6.29785 9.00095 6.29785ZM11.96 11.7687C11.8953 11.735 11.8306 11.6956 11.7687 11.659C11.5381 11.7941 11.3384 11.9347 10.9952 11.9347C10.6886 11.9347 10.3933 11.8053 10.1823 11.5803C9.66758 11.0234 9.27379 10.3455 9.05158 9.62258C8.75061 8.65216 9.75197 8.22462 9.77728 8.20774C9.77447 8.13461 9.77447 8.06148 9.77728 7.98834L9.55507 7.85895C9.44818 7.79707 9.35817 7.71831 9.27942 7.63112C9.18659 7.63674 9.09658 7.64799 9.00376 7.64799C8.31181 7.64799 7.66487 7.47923 7.077 7.19795H6.84353C5.05178 7.19795 3.60038 8.64935 3.60038 10.4383V11.2484C3.60038 11.9938 4.20513 12.5985 4.95052 12.5985H12.1344C12.0303 12.4297 11.96 12.2385 11.96 12.0275V11.7687ZM4.86895 6.82103C4.54267 6.49756 4.09543 6.29785 3.60038 6.29785H1.80019C0.807273 6.29785 0 7.10512 0 8.09804V8.99814C0 9.496 0.40223 9.89823 0.900095 9.89823H2.75373C2.93093 8.56497 3.73539 7.44266 4.86895 6.82103Z"/>
</mask>
<path d="M17.1721 8.69717L16.1887 8.51583L16.0607 9.21007L16.672 9.56313L17.1721 8.69717ZM17.1721 7.49892L16.672 6.63296L16.0607 6.98601L16.1887 7.68026L17.1721 7.49892ZM17.8978 7.07981L17.4048 6.20976L17.3977 6.21385L17.8978 7.07981ZM17.9906 6.84072L18.9477 6.55071L18.9458 6.54446L17.9906 6.84072ZM17.0568 5.22618L16.3209 5.90324L16.323 5.90558L17.0568 5.22618ZM16.8036 5.1868L16.3106 4.31675L16.3035 4.32083L16.8036 5.1868ZM16.0779 5.6059L15.4289 6.36664L15.9663 6.82517L16.5781 6.47187L16.0779 5.6059ZM15.04 5.00678H14.04V5.71255L14.705 5.94899L15.04 5.00678ZM14.8797 3.96886L14.6609 4.94469L14.6722 4.94709L14.8797 3.96886ZM13.0176 3.96886L13.2251 4.94718L13.2384 4.94417L13.0176 3.96886ZM12.8573 5.00678L13.1923 5.94899L13.8573 5.71255V5.00678H12.8573ZM11.8194 5.6059L11.3193 6.47187L11.931 6.82517L12.4684 6.36664L11.8194 5.6059ZM11.0937 5.1868L10.5879 6.04951L10.5936 6.05276L11.0937 5.1868ZM10.8405 5.22618L11.5743 5.90559L11.5764 5.90323L10.8405 5.22618ZM9.90667 6.84072L8.95154 6.54445L8.94965 6.55071L9.90667 6.84072ZM9.99949 7.07981L9.49376 7.94253L9.49938 7.94577L9.99949 7.07981ZM10.7252 7.49892L11.7086 7.68026L11.8366 6.98601L11.2253 6.63296L10.7252 7.49892ZM10.7252 8.69717L11.2253 9.56313L11.8366 9.21007L11.7086 8.51583L10.7252 8.69717ZM9.99949 9.11627L10.4925 9.98633L10.4996 9.98224L9.99949 9.11627ZM9.90667 9.35536L8.94963 9.64538L8.95156 9.65162L9.90667 9.35536ZM10.8405 10.9699L11.5764 10.2929L11.5764 10.2928L10.8405 10.9699ZM11.0937 11.0093L11.5867 11.8793L11.5938 11.8752L11.0937 11.0093ZM11.8194 10.5902L12.4684 9.82945L11.931 9.37092L11.3193 9.72422L11.8194 10.5902ZM12.8573 11.1893H13.8573V10.4835L13.1923 10.2471L12.8573 11.1893ZM13.0176 12.2272L13.2364 11.2514L13.2251 11.249L13.0176 12.2272ZM14.8797 12.2272L14.6722 11.2489L14.6589 11.2519L14.8797 12.2272ZM15.04 11.1893L14.705 10.2471L14.04 10.4835V11.1893H15.04ZM16.0779 10.5902L16.5781 9.72422L15.9663 9.37092L15.4289 9.82945L16.0779 10.5902ZM16.8036 11.0093L17.3094 10.1466L17.3038 10.1433L16.8036 11.0093ZM17.0568 10.9699L16.323 10.2905L16.3209 10.2929L17.0568 10.9699ZM17.9906 9.35536L18.9458 9.65163L18.9477 9.64537L17.9906 9.35536ZM17.8978 9.11627L18.4036 8.25356L18.3979 8.25031L17.8978 9.11627ZM9.15847 6.28097L9.21102 7.27959L9.86023 7.24542L10.0925 6.63822L9.15847 6.28097ZM10.1795 4.6158L9.44541 3.93676L9.44504 3.93716L10.1795 4.6158ZM11.5437 4.41047L11.0335 5.27055L11.0405 5.27464L11.5437 4.41047ZM11.7659 4.53985L11.2627 5.40403L11.7842 5.70767L12.2959 5.38785L11.7659 4.53985ZM11.8334 4.50047L12.3634 5.34847L12.6096 5.1946L12.7352 4.9328L11.8334 4.50047ZM11.96 11.7687H12.96V11.1626L12.4226 10.8822L11.96 11.7687ZM11.7687 11.659L12.2775 10.7981L11.7711 10.4989L11.2636 10.796L11.7687 11.659ZM10.1823 11.5803L9.44793 12.259L9.45279 12.2642L10.1823 11.5803ZM9.05158 9.62258L10.0074 9.32875L10.0067 9.32635L9.05158 9.62258ZM9.77728 8.20774L10.332 9.03979L10.7981 8.72906L10.7765 8.16931L9.77728 8.20774ZM9.77728 7.98834L10.7765 8.02678L10.7996 7.42646L10.2805 7.12417L9.77728 7.98834ZM9.55507 7.85895L10.0583 6.99478L10.0561 6.99353L9.55507 7.85895ZM9.27942 7.63112L10.0215 6.96083L9.69908 6.60385L9.21892 6.63295L9.27942 7.63112ZM7.077 7.19795L7.5086 6.29589L7.30391 6.19795H7.077V7.19795ZM12.1344 12.5985V13.5985H13.9259L12.9856 12.0736L12.1344 12.5985ZM4.86895 6.82103L5.34978 7.69784L6.52415 7.05384L5.57299 6.11087L4.86895 6.82103ZM2.75373 9.89823V10.8982H3.62961L3.74501 10.03L2.75373 9.89823ZM18.1555 8.87851C18.2508 8.36202 18.2508 7.83406 18.1555 7.31758L16.1887 7.68026C16.2397 7.95698 16.2397 8.23911 16.1887 8.51583L18.1555 8.87851ZM17.6722 8.36488L18.3979 7.94577L17.3977 6.21385L16.672 6.63296L17.6722 8.36488ZM18.3908 7.94983C18.9034 7.65937 19.1042 7.06732 18.9477 6.55071L17.0336 7.13073C16.9333 6.79977 17.061 6.40461 17.4048 6.20979L18.3908 7.94983ZM18.9458 6.54446C18.7122 5.79152 18.312 5.1099 17.7906 4.54677L16.323 5.90558C16.6455 6.2538 16.8922 6.6748 17.0355 7.13698L18.9458 6.54446ZM17.7927 4.54912C17.4136 4.13706 16.8004 4.03926 16.3106 4.31678L17.2967 6.05682C16.9757 6.23869 16.5706 6.17465 16.3209 5.90323L17.7927 4.54912ZM16.3035 4.32083L15.5778 4.73994L16.5781 6.47187L17.3038 6.05276L16.3035 4.32083ZM16.727 4.84517C16.3269 4.50383 15.8687 4.2401 15.375 4.06456L14.705 5.94899C14.9708 6.04349 15.2158 6.1848 15.4289 6.36664L16.727 4.84517ZM16.04 5.00678V4.16857H14.04V5.00678H16.04ZM16.04 4.16857C16.04 3.60912 15.6503 3.11007 15.0872 2.99062L14.6722 4.94709C14.2947 4.86702 14.04 4.53674 14.04 4.16857H16.04ZM15.0985 2.99308C14.3249 2.81963 13.5362 2.82613 12.7968 2.99354L13.2384 4.94417C13.6917 4.84155 14.18 4.83681 14.6609 4.94463L15.0985 2.99308ZM12.8101 2.99062C12.247 3.11007 11.8573 3.60912 11.8573 4.16857H13.8573C13.8573 4.53674 13.6026 4.86702 13.2251 4.94709L12.8101 2.99062ZM11.8573 4.16857V5.00678H13.8573V4.16857H11.8573ZM12.5223 4.06456C12.0286 4.2401 11.5704 4.50383 11.1703 4.84517L12.4684 6.36664C12.6816 6.1848 12.9265 6.04349 13.1923 5.94899L12.5223 4.06456ZM12.3195 4.73994L11.5938 4.32083L10.5936 6.05276L11.3193 6.47187L12.3195 4.73994ZM11.5994 4.3241C11.1021 4.0326 10.4803 4.14079 10.1046 4.54912L11.5764 5.90323C11.3302 6.17092 10.9221 6.24536 10.588 6.0495L11.5994 4.3241ZM10.1068 4.54677C9.58534 5.1099 9.18512 5.79152 8.95156 6.54446L10.8618 7.13698C11.0051 6.6748 11.2519 6.2538 11.5743 5.90558L10.1068 4.54677ZM8.94965 6.55071C8.78741 7.0861 9.01363 7.66104 9.49377 7.94251L10.5052 6.21711C10.8222 6.40294 10.9697 6.78098 10.8637 7.13073L8.94965 6.55071ZM9.49938 7.94577L10.2251 8.36488L11.2253 6.63296L10.4996 6.21385L9.49938 7.94577ZM9.74177 7.31758C9.64653 7.83406 9.64653 8.36202 9.74177 8.87851L11.7086 8.51583C11.6576 8.23911 11.6576 7.95698 11.7086 7.68026L9.74177 7.31758ZM10.2251 7.83121L9.49938 8.25031L10.4996 9.98224L11.2253 9.56313L10.2251 7.83121ZM9.50648 8.24625C8.99391 8.53671 8.7931 9.12877 8.94965 9.64537L10.8637 9.06536C10.964 9.39631 10.8363 9.79147 10.4925 9.9863L9.50648 8.24625ZM8.95156 9.65162C9.18565 10.4063 9.58626 11.0837 10.1047 11.6471L11.5764 10.2928C11.2509 9.93913 11.0046 9.51957 10.8618 9.0591L8.95156 9.65162ZM10.1046 11.647C10.4837 12.059 11.097 12.1568 11.5867 11.8793L10.6007 10.1393C10.9216 9.95739 11.3267 10.0214 11.5764 10.2929L10.1046 11.647ZM11.5938 11.8752L12.3195 11.4561L11.3193 9.72422L10.5936 10.1433L11.5938 11.8752ZM11.1703 11.3509C11.5704 11.6923 12.0286 11.956 12.5223 12.1315L13.1923 10.2471C12.9265 10.1526 12.6816 10.0113 12.4684 9.82945L11.1703 11.3509ZM11.8573 11.1893V12.0275H13.8573V11.1893H11.8573ZM11.8573 12.0275C11.8573 12.587 12.247 13.086 12.8101 13.2055L13.2251 11.249C13.6026 11.3291 13.8573 11.6593 13.8573 12.0275H11.8573ZM12.7988 13.203C13.5724 13.3765 14.3611 13.37 15.1005 13.2025L14.6589 11.2519C14.2056 11.3545 13.7173 11.3593 13.2364 11.2515L12.7988 13.203ZM15.0872 13.2055C15.6503 13.086 16.04 12.587 16.04 12.0275H14.04C14.04 11.6593 14.2947 11.3291 14.6722 11.249L15.0872 13.2055ZM16.04 12.0275V11.1893H14.04V12.0275H16.04ZM15.375 12.1315C15.8687 11.956 16.3269 11.6923 16.727 11.3509L15.4289 9.82945C15.2158 10.0113 14.9708 10.1526 14.705 10.2471L15.375 12.1315ZM15.5778 11.4561L16.3035 11.8752L17.3038 10.1433L16.5781 9.72422L15.5778 11.4561ZM16.2979 11.872C16.7952 12.1635 17.4171 12.0553 17.7927 11.647L16.3209 10.2929C16.5671 10.0252 16.9752 9.95072 17.3094 10.1466L16.2979 11.872ZM17.7906 11.6493C18.312 11.0862 18.7122 10.4046 18.9458 9.65162L17.0355 9.0591C16.8922 9.52129 16.6455 9.94229 16.323 10.2905L17.7906 11.6493ZM18.9477 9.64537C19.1099 9.10998 18.8837 8.53504 18.4035 8.25358L17.3921 9.97897C17.0751 9.79314 16.9276 9.4151 17.0336 9.06536L18.9477 9.64537ZM18.3979 8.25031L17.6722 7.83121L16.672 9.56313L17.3977 9.98224L18.3979 8.25031ZM13.9515 8.46225C13.7513 8.46225 13.5873 8.29812 13.5873 8.09804H11.5873C11.5873 9.4 12.644 10.4622 13.9515 10.4622V8.46225ZM13.5873 8.09804C13.5873 7.89931 13.7527 7.73384 13.9515 7.73384V5.73384C12.6482 5.73384 11.5873 6.79474 11.5873 8.09804H13.5873ZM13.9515 7.73384C14.1502 7.73384 14.3157 7.89931 14.3157 8.09804H16.3157C16.3157 6.79474 15.2548 5.73384 13.9515 5.73384V7.73384ZM14.3157 8.09804C14.3157 8.29812 14.1517 8.46225 13.9515 8.46225V10.4622C15.2589 10.4622 16.3157 9.4 16.3157 8.09804H14.3157ZM2.70028 6.39776C4.24549 6.39776 5.50047 5.14277 5.50047 3.59757H3.50047C3.50047 4.0382 3.14092 4.39776 2.70028 4.39776V6.39776ZM5.50047 3.59757C5.50047 2.05237 4.24549 0.797377 2.70028 0.797377V2.79738C3.14092 2.79738 3.50047 3.15693 3.50047 3.59757H5.50047ZM2.70028 0.797377C1.15508 0.797377 -0.0999051 2.05237 -0.0999051 3.59757H1.90009C1.90009 3.15693 2.25965 2.79738 2.70028 2.79738V0.797377ZM-0.0999051 3.59757C-0.0999051 5.14277 1.15508 6.39776 2.70028 6.39776V4.39776C2.25965 4.39776 1.90009 4.0382 1.90009 3.59757H-0.0999051ZM9.00095 7.29785C9.10874 7.29785 9.19952 7.28365 9.22674 7.2796C9.23996 7.27763 9.23704 7.27804 9.24521 7.27684C9.24913 7.27626 9.24967 7.2762 9.24859 7.27634C9.24665 7.2766 9.23232 7.27847 9.21102 7.27959L9.10591 5.28236C9.05789 5.28488 9.01719 5.28957 8.98906 5.29325C8.97488 5.29511 8.96237 5.29692 8.95326 5.29826C8.94868 5.29894 8.94437 5.29958 8.94106 5.30008C8.93741 5.30063 8.93506 5.30098 8.93267 5.30134C8.92228 5.30288 8.92727 5.302 8.93712 5.30098C8.94822 5.29982 8.97084 5.29785 9.00095 5.29785V7.29785ZM10.0925 6.63822C10.2846 6.13583 10.5635 5.67379 10.914 5.29444L9.44504 3.93716C8.9067 4.51979 8.49922 5.20537 8.22446 5.92373L10.0925 6.63822ZM10.9136 5.29484C10.9319 5.27503 10.9609 5.26139 10.9924 5.26139V3.26139C10.4051 3.26139 9.84338 3.50652 9.44541 3.93676L10.9136 5.29484ZM10.9924 5.26139C11.0139 5.26139 11.0279 5.26716 11.0335 5.27052L12.0539 3.55041C11.7277 3.35687 11.3591 3.26139 10.9924 3.26139V5.26139ZM11.0405 5.27464L11.2627 5.40403L12.2691 3.67568L12.0469 3.54629L11.0405 5.27464ZM12.2959 5.38785C12.289 5.39217 12.2843 5.39493 12.2833 5.39548C12.283 5.39567 12.2835 5.39538 12.2899 5.39174C12.2947 5.38905 12.3055 5.38301 12.3171 5.37632C12.3293 5.36927 12.3453 5.35983 12.3634 5.34847L11.3034 3.65248C11.3104 3.64815 11.3151 3.6454 11.3161 3.64485C11.3164 3.64466 11.3159 3.64495 11.3094 3.64858C11.3046 3.65128 11.2939 3.65732 11.2823 3.66401C11.2701 3.67106 11.2541 3.6805 11.2359 3.69186L12.2959 5.38785ZM12.7352 4.9328C12.9895 4.40224 13.1485 3.79961 13.1485 3.15033H11.1485C11.1485 3.46865 11.0711 3.77738 10.9317 4.06815L12.7352 4.9328ZM13.1485 3.15033C13.1485 0.856927 11.2915 -1 8.99814 -1V1C10.187 1 11.1485 1.9615 11.1485 3.15033H13.1485ZM8.99814 -1C6.70473 -1 4.85062 0.854114 4.85062 3.14752H6.85062C6.85062 1.95868 7.8093 1 8.99814 1V-1ZM4.85062 3.14752C4.85062 5.44093 6.70754 7.29785 9.00095 7.29785V5.29785C7.81211 5.29785 6.85062 4.33636 6.85062 3.14752H4.85062ZM12.4226 10.8822C12.3882 10.8642 12.356 10.8445 12.2775 10.7981L11.26 12.52C11.3052 12.5467 11.4024 12.6057 11.4974 12.6553L12.4226 10.8822ZM11.2636 10.796C11.2309 10.8152 11.1972 10.8353 11.1724 10.8501C11.1452 10.8662 11.1238 10.8788 11.1041 10.89C11.065 10.9123 11.0438 10.9226 11.0309 10.9281C11.025 10.9306 11.0214 10.9319 11.0196 10.9325C11.0179 10.933 11.0171 10.9332 11.0166 10.9333C11.0162 10.9334 11.0149 10.9337 11.0121 10.934C11.0092 10.9343 11.0038 10.9347 10.9952 10.9347V12.9347C11.6585 12.9347 12.0983 12.6248 12.2739 12.5221L11.2636 10.796ZM10.9952 10.9347C10.9691 10.9347 10.9366 10.9227 10.9119 10.8963L9.45279 12.2642C9.85001 12.6879 10.4082 12.9347 10.9952 12.9347V10.9347ZM10.9167 10.9015C10.5016 10.4524 10.1847 9.90539 10.0074 9.32875L8.09572 9.9164C8.36289 10.7855 8.83359 11.5943 9.44795 12.259L10.9167 10.9015ZM10.0067 9.32635C9.98744 9.26425 9.99964 9.25679 9.99388 9.27638C9.99124 9.28537 9.99203 9.27308 10.0216 9.24149C10.0523 9.20875 10.0947 9.17617 10.1386 9.14886C10.1588 9.13635 10.1759 9.12699 10.1881 9.12068C10.1942 9.1175 10.1994 9.11489 10.2064 9.11142C10.2079 9.11066 10.217 9.10617 10.2246 9.10228C10.2286 9.10026 10.238 9.09549 10.2493 9.08939C10.2527 9.0876 10.2893 9.06827 10.332 9.03979L9.22258 7.37569C9.53835 7.16517 7.52197 8.06647 8.09646 9.9188L10.0067 9.32635ZM10.7765 8.16931C10.7747 8.12179 10.7747 8.0743 10.7765 8.02678L8.77802 7.94991C8.77422 8.04866 8.77422 8.14743 8.77802 8.24617L10.7765 8.16931ZM10.2805 7.12417L10.0583 6.99478L9.05188 8.72313L9.27409 8.85252L10.2805 7.12417ZM10.0561 6.99353C10.0583 6.99479 10.047 6.98907 10.0215 6.96083L8.53731 8.3014C8.66932 8.44755 8.83808 8.59936 9.05403 8.72438L10.0561 6.99353ZM9.21892 6.63295C9.03679 6.64399 9.06203 6.64799 9.00376 6.64799V8.64799C9.13114 8.64799 9.3364 8.6295 9.33991 8.62929L9.21892 6.63295ZM9.00376 6.64799C8.47823 6.64799 7.97799 6.52047 7.5086 6.29589L6.64539 8.10001C7.35175 8.43798 8.1454 8.64799 9.00376 8.64799V6.64799ZM7.077 6.19795H6.84353V8.19795H7.077V6.19795ZM6.84353 6.19795C4.50006 6.19795 2.60038 8.0965 2.60038 10.4383H4.60038C4.60038 9.2022 5.6035 8.19795 6.84353 8.19795V6.19795ZM2.60038 10.4383V11.2484H4.60038V10.4383H2.60038ZM2.60038 11.2484C2.60038 12.5461 3.65285 13.5985 4.95052 13.5985V11.5985C4.75742 11.5985 4.60038 11.4415 4.60038 11.2484H2.60038ZM4.95052 13.5985H12.1344V11.5985H4.95052V13.5985ZM12.9856 12.0736C12.969 12.0467 12.9625 12.0299 12.9603 12.0232C12.9586 12.0177 12.96 12.0202 12.96 12.0275H10.96C10.96 12.4686 11.1084 12.8398 11.2832 13.1234L12.9856 12.0736ZM12.96 12.0275V11.7687H10.96V12.0275H12.96ZM5.57299 6.11087C5.06791 5.61015 4.37087 5.29785 3.60038 5.29785V7.29785C3.82 7.29785 4.01742 7.38497 4.16491 7.53119L5.57299 6.11087ZM3.60038 5.29785H1.80019V7.29785H3.60038V5.29785ZM1.80019 5.29785C0.254988 5.29785 -1 6.55284 -1 8.09804H1C1 7.65741 1.35956 7.29785 1.80019 7.29785V5.29785ZM-1 8.09804V8.99814H1V8.09804H-1ZM-1 8.99814C-1 10.0483 -0.150055 10.8982 0.900095 10.8982V8.89823C0.954515 8.89823 1 8.94372 1 8.99814H-1ZM0.900095 10.8982H2.75373V8.89823H0.900095V10.8982ZM3.74501 10.03C3.87895 9.02224 4.48617 8.17144 5.34978 7.69784L4.38812 5.94422C2.98462 6.71388 1.98292 8.1077 1.76245 9.76648L3.74501 10.03Z" fill="white" mask="url(#path-1-inside-1_694_21)"/>
</svg>
