<svg width="10" height="12" viewBox="0 0 10 12" fill="none" xmlns="http://www.w3.org/2000/svg">
<path d="M9 5C9 8.11111 5 10.7778 5 10.7778C5 10.7778 1 8.11111 1 5C1 3.93913 1.42143 2.92172 2.17157 2.17157C2.92172 1.42143 3.93913 1 5 1C6.06087 1 7.07828 1.42143 7.82843 2.17157C8.57857 2.92172 9 3.93913 9 5Z" fill="#fff" stroke="white" stroke-linecap="round" stroke-linejoin="round"/>
<path d="M5.00008 6.33342C5.73646 6.33342 6.33341 5.73646 6.33341 5.00008C6.33341 4.2637 5.73646 3.66675 5.00008 3.66675C4.2637 3.66675 3.66675 4.2637 3.66675 5.00008C3.66675 5.73646 4.2637 6.33342 5.00008 6.33342Z" fill="#01329C" stroke="#01329C" stroke-linecap="round" stroke-linejoin="round"/>
</svg>
