<svg width="22" height="22" viewBox="0 0 22 22" fill="none" xmlns="http://www.w3.org/2000/svg">
<path d="M10.749 21.501C9.297 21.501 7.89 21.216 6.564 20.655C5.283 20.115 4.134 19.338 3.147 18.351C2.16 17.364 1.386 16.215 0.843 14.934C0.282 13.611 0 12.204 0 10.752C0 9.3 0.285 7.893 0.846 6.567C1.386 5.286 2.163 4.137 3.15 3.15C4.137 2.163 5.286 1.389 6.567 0.846C7.893 0.285 9.3 0 10.752 0C12.204 0 13.611 0.285 14.937 0.846C16.218 1.386 17.367 2.163 18.354 3.15C19.341 4.137 20.115 5.286 20.658 6.567C21.219 7.893 21.504 9.3 21.504 10.752C21.504 12.204 21.219 13.611 20.658 14.937C20.118 16.218 19.341 17.367 18.354 18.354C17.367 19.341 16.218 20.115 14.937 20.658C13.608 21.219 12.201 21.501 10.749 21.501ZM10.749 1.503C5.649 1.503 1.5 5.652 1.5 10.752C1.5 15.852 5.649 20.001 10.749 20.001C15.849 20.001 19.998 15.852 19.998 10.752C19.998 5.652 15.849 1.503 10.749 1.503Z" fill="#01329C"/>
<path d="M10.749 14.502C10.335 14.502 9.99902 14.166 9.99902 13.752V11.502H7.74902C7.33502 11.502 6.99902 11.166 6.99902 10.752C6.99902 10.338 7.33502 10.002 7.74902 10.002H9.99902V7.75195C9.99902 7.33795 10.335 7.00195 10.749 7.00195C11.163 7.00195 11.499 7.33795 11.499 7.75195V10.002H13.749C14.163 10.002 14.499 10.338 14.499 10.752C14.499 11.166 14.163 11.502 13.749 11.502H11.499V13.752C11.499 14.166 11.163 14.502 10.749 14.502Z" fill="#01329C"/>
</svg>
