<svg width="22" height="22" viewBox="0 0 22 22" fill="none" xmlns="http://www.w3.org/2000/svg">
<path d="M11.0004 1.63413C11.4735 1.63413 11.8147 1.88336 12.0171 2.09176C12.4575 2.54595 12.9087 3.00873 13.3581 3.46679C13.6564 3.77125 14.0621 3.94665 14.4882 3.95535C15.1005 3.96781 15.7218 3.98414 16.335 4.00305C16.7449 4.01594 17.1501 4.20157 17.4758 4.52599C17.8002 4.85084 17.9859 5.25475 17.9988 5.66339C18.0181 6.27657 18.034 6.89791 18.0464 7.5098C18.055 7.93777 18.2312 8.34512 18.5363 8.64419C18.9956 9.09451 19.4588 9.54569 19.9121 9.9857C20.1205 10.1885 20.3689 10.5288 20.3689 10.9998C20.3689 11.3719 20.2112 11.7221 19.913 12.0121C19.4575 12.4539 18.9948 12.9051 18.5371 13.3537C18.2316 13.653 18.0557 14.0604 18.0473 14.4881C18.0348 15.1008 18.0185 15.7204 17.9996 16.3297C17.9859 16.7354 17.7946 17.1509 17.4758 17.4697C17.1561 17.7894 16.7393 17.9806 16.3324 17.9948C15.7205 18.0141 15.1009 18.03 14.4899 18.0425C14.0637 18.0511 13.6576 18.2268 13.359 18.5319C12.9107 18.9897 12.4635 19.4487 12.0175 19.9087C11.7257 20.2077 11.3743 20.3654 10.9987 20.3654C10.6232 20.3654 10.2725 20.2069 9.98164 19.9074C9.53572 19.4481 9.0887 18.9899 8.64059 18.5328C8.34211 18.2287 7.93653 18.0533 7.51051 18.0442C6.89734 18.0318 6.27602 18.0154 5.66371 17.9965C5.25422 17.9836 4.84902 17.7976 4.5216 17.4727C4.19805 17.147 4.01285 16.7435 4.00039 16.3362C3.98105 15.7213 3.96516 15.0995 3.9527 14.4881C3.9441 14.0597 3.7675 13.6523 3.46156 13.3528C3.00386 12.905 2.5451 12.4582 2.08527 12.0126C1.78793 11.7234 1.63066 11.3736 1.63066 11.0002C1.63066 10.5314 1.8773 10.192 2.08484 9.98914C2.54509 9.54306 3.00414 9.09574 3.46199 8.6472C3.76761 8.34765 3.94363 7.94023 3.95227 7.51237C3.96473 6.90135 3.98062 6.28087 3.99996 5.66726C4.01457 5.26206 4.20535 4.84783 4.52332 4.52985C4.84258 4.21059 5.25938 4.01938 5.66672 4.0052C6.27859 3.98586 6.89863 3.96996 7.50922 3.9575C7.93547 3.94891 8.34109 3.77316 8.63973 3.46851C9.09004 3.00916 9.54207 2.54552 9.98293 2.09047C10.1853 1.88164 10.5256 1.63284 10.9987 1.63284H10.9996M11.0004 0H10.9987C10.1776 0 9.40586 0.342038 8.81375 0.953066C8.37117 1.4094 7.92559 1.86703 7.47656 2.32465C6.85523 2.33755 6.23391 2.35344 5.61258 2.37278C3.90113 2.43122 2.42859 3.90336 2.36973 5.61527C2.35039 6.23661 2.33406 6.85838 2.3216 7.47972C1.86398 7.92789 1.4068 8.37348 0.950469 8.81564C0.342031 9.40819 0 10.1812 0 11.0015C0 11.8222 0.339883 12.594 0.950898 13.1878C1.40913 13.6315 1.86618 14.0763 2.32203 14.5224C2.33492 15.1442 2.35082 15.7664 2.37059 16.3882C2.3968 17.2218 2.75516 18.0133 3.37047 18.6308C3.98664 19.2444 4.78027 19.6044 5.61301 19.6307C6.23434 19.65 6.85609 19.6663 7.47742 19.6788C7.92516 20.1356 8.37031 20.5919 8.81246 21.0469C9.40586 21.6584 10.1784 22 10.9987 22H11.0004C11.8207 22 12.5933 21.6584 13.1875 21.0478C13.6297 20.5915 14.0748 20.1343 14.523 19.6766C15.1443 19.6637 15.7657 19.6478 16.387 19.6285C18.098 19.5701 19.5714 18.0966 19.6298 16.386C19.6492 15.7647 19.6655 15.1433 19.678 14.5224C20.1337 14.0755 20.5908 13.6299 21.0491 13.1856C21.658 12.5935 22.0004 11.8201 22 11.0002C22 10.1795 21.658 9.4069 21.0482 8.81392C20.5919 8.37134 20.1347 7.92574 19.6771 7.47714C19.6642 6.8558 19.6483 6.23403 19.629 5.61269C19.6028 4.7808 19.2448 3.98672 18.6282 3.37011C18.0129 2.75607 17.2176 2.39641 16.3861 2.3702C15.7648 2.35087 15.143 2.33454 14.5217 2.32208C14.0756 1.86682 13.6306 1.41048 13.1867 0.953066C12.5933 0.341608 11.8211 0 11.0004 0Z" fill="#79AC2B"/>
<path d="M9.58538 14.9981C9.36882 14.9981 9.16085 14.9117 9.00788 14.7583L5.56823 11.3044C5.25026 10.9851 5.25069 10.4678 5.56952 10.1489C5.88835 9.83011 6.40483 9.83097 6.7228 10.1502L9.58495 13.0245L15.277 7.30866C15.595 6.98939 16.1115 6.98853 16.4303 7.30737C16.7491 7.6262 16.7496 8.14313 16.4316 8.46282L10.1625 14.7583C10.0868 14.8344 9.99677 14.8947 9.89766 14.9359C9.79855 14.977 9.69227 14.9982 9.58495 14.9981H9.58538Z" fill="#79AC2B"/>
</svg>
