<svg width="22" height="22" viewBox="0 0 22 22" fill="none" xmlns="http://www.w3.org/2000/svg">
<path d="M15.8583 19.8781C15.5044 19.8781 15.1646 19.7351 14.9185 19.482L12.7646 17.2835C12.4857 17 12.4904 16.5429 12.7763 16.264C13.0599 15.9851 13.5169 15.9898 13.7958 16.2757L15.856 18.3804L20.2083 13.3437C20.4685 13.0437 20.9232 13.0085 21.2232 13.2687C21.5232 13.5289 21.5583 13.9835 21.2982 14.2835L16.8568 19.421C16.6177 19.7 16.2685 19.864 15.9005 19.8757C15.8841 19.8781 15.8724 19.8781 15.8583 19.8781Z" fill="#2175B2"/>
<path d="M15.4809 10.3484C15.0941 10.1891 14.698 10.0578 14.2949 9.95703C15.5371 8.97266 16.3363 7.45156 16.3363 5.74531C16.3363 2.78281 13.9246 0.371094 10.9621 0.371094C7.99961 0.371094 5.58789 2.78281 5.58789 5.74531C5.58789 7.45156 6.38711 8.97266 7.6293 9.95703C3.75977 10.9461 0.888672 14.4617 0.888672 18.6359V19.1398C0.888672 20.4312 1.94102 21.4813 3.23008 21.4813H13.7746C14.1707 21.4813 14.4941 21.1578 14.4941 20.7617C14.4941 20.3656 14.1707 20.0422 13.7746 20.0422H3.23242C2.73555 20.0422 2.33008 19.6367 2.33008 19.1398V18.6359C2.33008 14.4922 5.70273 11.1172 9.84883 11.1172H12.0777C13.0668 11.1172 14.0277 11.3047 14.9348 11.6797C15.3027 11.832 15.7223 11.6562 15.8746 11.2883C16.0223 10.9227 15.8465 10.5008 15.4809 10.3484ZM7.0293 5.74531C7.0293 3.57734 8.79414 1.8125 10.9621 1.8125C13.1301 1.8125 14.8949 3.57734 14.8949 5.74531C14.8949 7.91328 13.1301 9.67813 10.9598 9.67813C8.78945 9.67813 7.0293 7.91562 7.0293 5.74531Z" fill="#2175B2"/>
</svg>
