<svg width="18" height="22" viewBox="0 0 18 22" fill="none" xmlns="http://www.w3.org/2000/svg">
<path fill-rule="evenodd" clip-rule="evenodd" d="M8.5 17.25H16.5C16.6989 17.25 16.8897 17.171 17.0303 17.0303C17.171 16.8897 17.25 16.6989 17.25 16.5V2C17.25 1.536 17.066 1.091 16.737 0.763C16.5747 0.600294 16.3819 0.471223 16.1696 0.383191C15.9574 0.295159 15.7298 0.249897 15.5 0.25H3.5C2.771 0.25 2.071 0.54 1.555 1.055C1.0398 1.57122 0.750306 2.27067 0.75 3V18.5C0.75 18.6989 0.829018 18.8897 0.96967 19.0303C1.11032 19.171 1.30109 19.25 1.5 19.25C1.69891 19.25 1.88968 19.171 2.03033 19.0303C2.17098 18.8897 2.25 18.6989 2.25 18.5V3C2.25053 2.66864 2.38239 2.35101 2.6167 2.1167C2.85101 1.88239 3.16864 1.75053 3.5 1.75H15.5C15.5663 1.75 15.6299 1.77634 15.6768 1.82322C15.7237 1.87011 15.75 1.9337 15.75 2V15.75H8.5C8.30109 15.75 8.11032 15.829 7.96967 15.9697C7.82902 16.1103 7.75 16.3011 7.75 16.5C7.75 16.6989 7.82902 16.8897 7.96967 17.0303C8.11032 17.171 8.30109 17.25 8.5 17.25Z" fill="#FF8900"/>
<path fill-rule="evenodd" clip-rule="evenodd" d="M8.5 15.75H3.75C2.95435 15.75 2.19129 16.0661 1.62868 16.6287C1.06607 17.1913 0.75 17.9544 0.75 18.75C0.75 19.5456 1.06607 20.3087 1.62868 20.8713C2.19129 21.4339 2.95435 21.75 3.75 21.75H15.5C15.964 21.75 16.409 21.566 16.737 21.237C17.066 20.909 17.25 20.464 17.25 20V18.5C17.25 18.3011 17.171 18.1103 17.0303 17.9697C16.8897 17.829 16.6989 17.75 16.5 17.75C16.3011 17.75 16.1103 17.829 15.9697 17.9697C15.829 18.1103 15.75 18.3011 15.75 18.5V20C15.75 20.0663 15.7237 20.1299 15.6768 20.1768C15.6299 20.2237 15.5663 20.25 15.5 20.25H3.75C3.35242 20.2492 2.97135 20.0909 2.69022 19.8098C2.40908 19.5287 2.25079 19.1476 2.25 18.75C2.25 18.3522 2.40804 17.9706 2.68934 17.6893C2.97064 17.408 3.35218 17.25 3.75 17.25H8.5C8.69891 17.25 8.88968 17.171 9.03033 17.0303C9.17098 16.8897 9.25 16.6989 9.25 16.5C9.25 16.3011 9.17098 16.1103 9.03033 15.9697C8.88968 15.829 8.69891 15.75 8.5 15.75ZM5.5 5.75H12.5C12.6989 5.75 12.8897 5.67098 13.0303 5.53033C13.171 5.38968 13.25 5.19891 13.25 5C13.25 4.80109 13.171 4.61032 13.0303 4.46967C12.8897 4.32902 12.6989 4.25 12.5 4.25H5.5C5.30109 4.25 5.11032 4.32902 4.96967 4.46967C4.82902 4.61032 4.75 4.80109 4.75 5C4.75 5.19891 4.82902 5.38968 4.96967 5.53033C5.11032 5.67098 5.30109 5.75 5.5 5.75Z" fill="#FF8900"/>
</svg>
