<svg width="20" height="20" viewBox="0 0 20 20" fill="none" xmlns="http://www.w3.org/2000/svg">
<path d="M8.17233 19.404C7.54853 19.4052 6.93063 19.2832 6.35417 19.0448C5.77771 18.8064 5.25406 18.4564 4.81333 18.015C3.92385 17.1234 3.42432 15.9154 3.42432 14.656C3.42432 13.3966 3.92385 12.1886 4.81333 11.297L10.8843 5.22698C11.9233 4.18698 13.7363 4.18898 14.7733 5.22698C15.2933 5.74598 15.5793 6.43598 15.5793 7.17098C15.5793 7.90598 15.2933 8.59598 14.7733 9.11498L8.70333 15.186C8.56263 15.3267 8.3718 15.4057 8.17283 15.4057C7.97385 15.4057 7.78302 15.3267 7.64233 15.186C7.50163 15.0453 7.42259 14.8545 7.42259 14.6555C7.42259 14.4565 7.50163 14.2657 7.64233 14.125L13.7123 8.05398C13.9483 7.81798 14.0783 7.50398 14.0783 7.16998C14.0783 6.83598 13.9483 6.52298 13.7123 6.28598C13.4743 6.05835 13.1577 5.93131 12.8283 5.93131C12.499 5.93131 12.1823 6.05835 11.9443 6.28598L5.87333 12.356C5.26481 12.9662 4.92309 13.7927 4.92309 14.6545C4.92309 15.5162 5.26481 16.3428 5.87333 16.953C6.48324 17.562 7.30992 17.904 8.17183 17.904C9.03373 17.904 9.86041 17.562 10.4703 16.953L16.5413 10.882C17.5245 9.89662 18.0767 8.56147 18.0767 7.16948C18.0767 5.77749 17.5245 4.44234 16.5413 3.45698C15.556 2.47377 14.2208 1.92158 12.8288 1.92158C11.4368 1.92158 10.1017 2.47377 9.11633 3.45698L1.63133 10.942C1.56166 11.0116 1.47895 11.0669 1.38793 11.1046C1.29691 11.1423 1.19935 11.1617 1.10083 11.1617C1.0023 11.1617 0.904745 11.1423 0.813722 11.1046C0.722698 11.0669 0.639992 11.0116 0.570326 10.942C0.50066 10.8723 0.445398 10.7896 0.407695 10.6986C0.369991 10.6076 0.350586 10.51 0.350586 10.4115C0.350586 10.313 0.369991 10.2154 0.407695 10.1244C0.445398 10.0334 0.50066 9.95065 0.570326 9.88098L8.05533 2.39598C10.6863 -0.235021 14.9683 -0.235021 17.6013 2.39598C20.2333 5.02898 20.2333 9.31098 17.6013 11.942L11.5303 18.013C11.0896 18.4542 10.5661 18.804 9.98985 19.0424C9.41359 19.2807 8.79593 19.4029 8.17233 19.402V19.404Z" fill="#01329C"/>
</svg>
