<svg width="21" height="24" viewBox="0 0 21 24" fill="none" xmlns="http://www.w3.org/2000/svg">
<path d="M12.7031 24H3.75C1.6822 24 0 22.3178 0 20.25V7.54688C0 5.47908 1.6822 3.79688 3.75 3.79688H12.7031C14.7709 3.79688 16.4531 5.47908 16.4531 7.54688V20.25C16.4531 22.3178 14.7709 24 12.7031 24ZM3.75 5.67188C2.71617 5.67188 1.875 6.51305 1.875 7.54688V20.25C1.875 21.2838 2.71617 22.125 3.75 22.125H12.7031C13.737 22.125 14.5781 21.2838 14.5781 20.25V7.54688C14.5781 6.51305 13.737 5.67188 12.7031 5.67188H3.75ZM20.2031 17.9062V3.75C20.2031 1.6822 18.5209 0 16.4531 0H6.04688C5.52905 0 5.10938 0.419672 5.10938 0.9375C5.10938 1.45533 5.52905 1.875 6.04688 1.875H16.4531C17.487 1.875 18.3281 2.71617 18.3281 3.75V17.9062C18.3281 18.4241 18.7478 18.8438 19.2656 18.8438C19.7835 18.8438 20.2031 18.4241 20.2031 17.9062Z" fill="#24798F"/>
</svg>
