<svg width="24" height="24" viewBox="0 0 24 24" fill="none" xmlns="http://www.w3.org/2000/svg">
<path d="M18.75 14.25C18.3824 14.2516 18.0165 14.2982 17.6603 14.3887C17.5718 14.2935 17.49 14.1945 17.3978 14.1022C16.3623 13.0678 15.1058 12.2816 13.7228 11.8027C14.8183 11.1051 15.6579 10.0709 16.1154 8.8553C16.573 7.63974 16.6237 6.30853 16.26 5.06167C15.8964 3.81481 15.1379 2.71963 14.0986 1.94064C13.0594 1.16166 11.7954 0.740944 10.4966 0.7417C9.19774 0.742457 7.93424 1.16464 6.89587 1.94484C5.8575 2.72503 5.10033 3.8211 4.73811 5.06838C4.37589 6.31567 4.42817 7.64681 4.88712 8.86184C5.34606 10.0769 6.18688 11.1102 7.28325 11.8065C5.37665 12.4742 3.72426 13.7172 2.55406 15.3639C1.38385 17.0106 0.753512 18.9799 0.75 21V22.5C0.75 22.6989 0.829018 22.8897 0.96967 23.0303C1.11032 23.171 1.30109 23.25 1.5 23.25C1.69891 23.25 1.88968 23.171 2.03033 23.0303C2.17098 22.8897 2.25 22.6989 2.25 22.5C2.25 20.3835 2.502 18.045 3.75 16.2615C4.52845 15.1956 5.54272 14.3241 6.71363 13.715C7.88453 13.1059 9.18038 12.7756 10.5 12.75C12.6272 12.7449 14.6731 13.5671 16.2052 15.0427C15.3194 15.6526 14.6816 16.5599 14.4075 17.5999C14.1334 18.6399 14.2413 19.7437 14.7115 20.7109C15.1817 21.6782 15.9831 22.4448 16.9702 22.8717C17.9574 23.2986 19.0649 23.3574 20.0917 23.0376C21.1185 22.7177 21.9966 22.0403 22.5667 21.1283C23.1367 20.2163 23.3609 19.1302 23.1986 18.067C23.0363 17.0038 22.4982 16.0341 21.682 15.3337C20.8657 14.6334 19.8255 14.2489 18.75 14.25ZM6 6.75C6 5.85998 6.26392 4.98995 6.75839 4.24993C7.25285 3.50991 7.95566 2.93313 8.77792 2.59254C9.60019 2.25195 10.505 2.16283 11.3779 2.33646C12.2508 2.5101 13.0526 2.93868 13.682 3.56802C14.3113 4.19735 14.7399 4.99918 14.9135 5.87209C15.0872 6.74501 14.9981 7.64981 14.6575 8.47207C14.3169 9.29434 13.7401 9.99714 13.0001 10.4916C12.26 10.9861 11.39 11.25 10.5 11.25C9.30689 11.2488 8.16299 10.7743 7.31933 9.93066C6.47568 9.08701 6.00119 7.94311 6 6.75ZM18.75 21.75C18.1567 21.75 17.5766 21.5741 17.0833 21.2444C16.5899 20.9148 16.2054 20.4462 15.9784 19.898C15.7513 19.3499 15.6919 18.7467 15.8076 18.1647C15.9234 17.5828 16.2091 17.0482 16.6287 16.6287C17.0482 16.2091 17.5828 15.9234 18.1647 15.8076C18.7467 15.6919 19.3499 15.7513 19.8981 15.9784C20.4462 16.2054 20.9148 16.5899 21.2444 17.0833C21.5741 17.5766 21.75 18.1567 21.75 18.75C21.75 19.5456 21.4339 20.3087 20.8713 20.8713C20.3087 21.4339 19.5456 21.75 18.75 21.75Z" fill="#C60F0F"/>
<path d="M20.25 18H17.25C17.0511 18 16.8603 18.079 16.7197 18.2197C16.579 18.3603 16.5 18.5511 16.5 18.75C16.5 18.9489 16.579 19.1397 16.7197 19.2803C16.8603 19.421 17.0511 19.5 17.25 19.5H20.25C20.4489 19.5 20.6397 19.421 20.7803 19.2803C20.921 19.1397 21 18.9489 21 18.75C21 18.5511 20.921 18.3603 20.7803 18.2197C20.6397 18.079 20.4489 18 20.25 18Z" fill="#C60F0F"/>
</svg>
