<svg width="24" height="24" viewBox="0 0 24 24" fill="none" xmlns="http://www.w3.org/2000/svg">
<path fill-rule="evenodd" clip-rule="evenodd" d="M9.42572 10.254C9.62356 10.2342 9.82117 10.2937 9.97512 10.4195C10.1291 10.5454 10.2268 10.7272 10.2467 10.925L10.7467 15.925C10.7592 16.0243 10.7518 16.1251 10.7247 16.2215C10.6977 16.3178 10.6516 16.4078 10.5893 16.4861C10.5269 16.5644 10.4495 16.6294 10.3617 16.6773C10.2738 16.7252 10.1772 16.7551 10.0776 16.7651C9.97805 16.7751 9.87747 16.7651 9.78182 16.7356C9.68617 16.7061 9.59738 16.6578 9.52069 16.5935C9.44401 16.5292 9.38096 16.4502 9.33528 16.3611C9.2896 16.2721 9.26221 16.1748 9.25472 16.075L8.75472 11.075C8.73489 10.8771 8.79443 10.6795 8.92026 10.5256C9.04608 10.3716 9.22789 10.2739 9.42572 10.254ZM14.5757 10.254C14.7734 10.2739 14.955 10.3715 15.0808 10.5252C15.2066 10.679 15.2663 10.8763 15.2467 11.074L14.7467 16.074C14.7395 16.174 14.7124 16.2715 14.6668 16.3608C14.6213 16.4501 14.5584 16.5294 14.4817 16.594C14.405 16.6585 14.3161 16.7071 14.2204 16.7367C14.1246 16.7663 14.0239 16.7765 13.9241 16.7665C13.8244 16.7565 13.7276 16.7267 13.6396 16.6787C13.5516 16.6307 13.4741 16.5656 13.4117 16.4871C13.3493 16.4087 13.3033 16.3185 13.2763 16.2219C13.2493 16.1254 13.242 16.0244 13.2547 15.925L13.7547 10.925C13.7747 10.7274 13.8722 10.5457 14.026 10.4199C14.1797 10.2941 14.378 10.2344 14.5757 10.254Z" fill="#C60F0F"/>
<path fill-rule="evenodd" clip-rule="evenodd" d="M10.1245 1.25H13.5055C13.7225 1.25 13.9105 1.25 14.0885 1.278C14.4353 1.3334 14.7644 1.46925 15.0494 1.67468C15.3344 1.8801 15.5673 2.1494 15.7295 2.461C15.8125 2.621 15.8725 2.8 15.9405 3.005L16.0525 3.34L16.0815 3.425C16.1719 3.67615 16.3405 3.89174 16.5623 4.04019C16.7842 4.18865 17.0478 4.26217 17.3145 4.25H20.3145C20.5134 4.25 20.7041 4.32902 20.8448 4.46967C20.9854 4.61032 21.0645 4.80109 21.0645 5C21.0645 5.19891 20.9854 5.38968 20.8448 5.53033C20.7041 5.67098 20.5134 5.75 20.3145 5.75H3.31445C3.11554 5.75 2.92478 5.67098 2.78412 5.53033C2.64347 5.38968 2.56445 5.19891 2.56445 5C2.56445 4.80109 2.64347 4.61032 2.78412 4.46967C2.92478 4.32902 3.11554 4.25 3.31445 4.25H6.40445C6.67156 4.24359 6.92958 4.15177 7.14068 3.988C7.35178 3.82423 7.50486 3.59713 7.57745 3.34L7.68945 3.005C7.75745 2.8 7.81745 2.621 7.90045 2.461C8.06255 2.14952 8.29529 1.8803 8.58007 1.67488C8.86484 1.46946 9.19374 1.33354 9.54045 1.278C9.71945 1.25 9.90745 1.25 10.1245 1.25ZM8.82345 4.25C8.89367 4.11249 8.95221 3.96932 8.99845 3.822L9.09845 3.522C9.18845 3.249 9.21045 3.194 9.23045 3.154C9.28444 3.05001 9.36204 2.96011 9.45703 2.89152C9.55202 2.82292 9.66176 2.77754 9.77745 2.759C9.82245 2.752 9.88145 2.75 10.1705 2.75H13.4605C13.7485 2.75 13.8075 2.752 13.8525 2.76C13.9681 2.77843 14.0777 2.82366 14.1727 2.89208C14.2677 2.9605 14.3453 3.0502 14.3995 3.154C14.4195 3.194 14.4405 3.249 14.5325 3.523L14.6325 3.823L14.6705 3.936C14.7105 4.044 14.7555 4.149 14.8075 4.25H8.82345ZM5.11745 7.752C5.31581 7.73883 5.51129 7.80495 5.66092 7.93583C5.81056 8.06671 5.90211 8.25165 5.91545 8.45L6.37545 15.35C6.46545 16.697 6.52945 17.635 6.66945 18.34C6.80645 19.025 6.99645 19.387 7.26945 19.643C7.54345 19.899 7.91745 20.065 8.60945 20.155C9.32245 20.248 10.2635 20.25 11.6135 20.25H12.3875C13.7375 20.25 14.6775 20.248 15.3915 20.155C16.0835 20.065 16.4575 19.899 16.7315 19.643C17.0045 19.387 17.1945 19.025 17.3315 18.34C17.4715 17.635 17.5355 16.697 17.6255 15.35L18.0855 8.45C18.092 8.35171 18.1179 8.25567 18.1616 8.16737C18.2052 8.07907 18.2659 8.00024 18.34 7.93538C18.4142 7.87051 18.5004 7.82089 18.5937 7.78934C18.687 7.75779 18.7857 7.74493 18.884 7.7515C18.9822 7.75807 19.0783 7.78393 19.1666 7.82761C19.2549 7.87129 19.3337 7.93194 19.3986 8.00609C19.4634 8.08023 19.5131 8.16643 19.5446 8.25976C19.5762 8.35308 19.589 8.45171 19.5825 8.55L19.1185 15.502C19.0335 16.784 18.9645 17.82 18.8025 18.634C18.6335 19.479 18.3475 20.185 17.7555 20.738C17.1645 21.292 16.4405 21.531 15.5855 21.642C14.7635 21.75 13.7255 21.75 12.4395 21.75H11.5615C10.2755 21.75 9.23745 21.75 8.41545 21.643C7.56045 21.531 6.83645 21.292 6.24545 20.738C5.65345 20.185 5.36745 19.478 5.19845 18.634C5.03645 17.82 4.96845 16.784 4.88245 15.502L4.41845 8.55C4.41193 8.4517 4.42485 8.35308 4.45645 8.25978C4.48805 8.16647 4.53773 8.0803 4.60264 8.0062C4.66755 7.93209 4.74643 7.8715 4.83476 7.82788C4.92309 7.78427 5.01915 7.75848 5.11745 7.752Z" fill="#C60F0F"/>
</svg>
