<svg width="24" height="24" viewBox="0 0 24 24" fill="none" xmlns="http://www.w3.org/2000/svg">
<path fill-rule="evenodd" clip-rule="evenodd" d="M11.943 1.75H12.057C14.247 1.75 15.969 1.75 17.312 1.93C18.689 2.116 19.781 2.503 20.639 3.36C21.497 4.22 21.884 5.311 22.069 6.688C22.25 8.031 22.25 9.752 22.25 11.943V12.057C22.25 14.247 22.25 15.969 22.07 17.312C21.884 18.689 21.497 19.781 20.64 20.639C19.783 21.497 18.689 21.884 17.312 22.069C15.969 22.25 14.248 22.25 12.057 22.25H11.943C9.753 22.25 8.031 22.25 6.688 22.07C5.311 21.884 4.219 21.497 3.361 20.64C2.503 19.78 2.116 18.689 1.931 17.312C1.75 15.969 1.75 14.248 1.75 12.057V11.943C1.75 9.753 1.75 8.031 1.93 6.688C2.116 5.311 2.503 4.219 3.36 3.361C4.22 2.503 5.311 2.116 6.688 1.931C8.031 1.75 9.752 1.75 11.943 1.75ZM6.888 3.417C5.678 3.58 4.955 3.889 4.422 4.422C3.889 4.955 3.58 5.678 3.417 6.888C3.252 8.12 3.25 9.74 3.25 12C3.25 14.26 3.252 15.88 3.417 17.112C3.58 18.322 3.889 19.045 4.422 19.578C4.955 20.111 5.678 20.42 6.888 20.583C8.12 20.748 9.74 20.75 12 20.75C14.26 20.75 15.88 20.748 17.112 20.583C18.322 20.42 19.045 20.112 19.578 19.578C20.111 19.045 20.42 18.322 20.583 17.112C20.748 15.88 20.75 14.26 20.75 12C20.75 9.74 20.748 8.12 20.583 6.888C20.42 5.678 20.112 4.955 19.578 4.422C19.045 3.889 18.322 3.58 17.112 3.417C15.88 3.252 14.26 3.25 12 3.25C9.74 3.25 8.12 3.252 6.888 3.417Z" fill="#2175B2"/>
<path fill-rule="evenodd" clip-rule="evenodd" d="M12 6.25C12.1989 6.25 12.3897 6.32902 12.5303 6.46967C12.671 6.61032 12.75 6.80109 12.75 7V12.547L12.787 12.509L13.961 11.295C14.0293 11.2236 14.1111 11.1664 14.2016 11.1267C14.2921 11.087 14.3896 11.0656 14.4884 11.0637C14.5872 11.0618 14.6855 11.0794 14.7774 11.1156C14.8694 11.1518 14.9533 11.2058 15.0244 11.2746C15.0954 11.3433 15.1521 11.4254 15.1913 11.5161C15.2305 11.6068 15.2514 11.7044 15.2528 11.8032C15.2541 11.9021 15.236 12.0002 15.1993 12.092C15.1626 12.1837 15.1081 12.2673 15.039 12.338L13.865 13.552L13.834 13.584C13.548 13.879 13.284 14.154 13.039 14.346C12.769 14.559 12.432 14.75 12 14.75C11.568 14.75 11.231 14.56 10.961 14.346C10.716 14.153 10.451 13.879 10.166 13.584L10.135 13.552L8.961 12.338C8.89189 12.2673 8.83742 12.1837 8.80074 12.092C8.76405 12.0002 8.74586 11.9021 8.74723 11.8032C8.74859 11.7044 8.76947 11.6068 8.80867 11.5161C8.84787 11.4254 8.90461 11.3433 8.97565 11.2746C9.04668 11.2058 9.13059 11.1518 9.22256 11.1156C9.31454 11.0794 9.41276 11.0618 9.51157 11.0637C9.61039 11.0656 9.70786 11.087 9.79837 11.1267C9.88889 11.1664 9.97066 11.2236 10.039 11.295L11.213 12.509L11.25 12.547V7C11.25 6.80109 11.329 6.61032 11.4697 6.46967C11.6103 6.32902 11.8011 6.25 12 6.25ZM7.25 17C7.25 16.8011 7.32902 16.6103 7.46967 16.4697C7.61032 16.329 7.80109 16.25 8 16.25H16C16.1989 16.25 16.3897 16.329 16.5303 16.4697C16.671 16.6103 16.75 16.8011 16.75 17C16.75 17.1989 16.671 17.3897 16.5303 17.5303C16.3897 17.671 16.1989 17.75 16 17.75H8C7.80109 17.75 7.61032 17.671 7.46967 17.5303C7.32902 17.3897 7.25 17.1989 7.25 17Z" fill="#2175B2"/>
</svg>
