<svg width="22" height="22" viewBox="0 0 22 22" fill="none" xmlns="http://www.w3.org/2000/svg">
<path d="M14 21.75H8C2.57 21.75 0.25 19.43 0.25 14V8C0.25 2.57 2.57 0.25 8 0.25H10C10.41 0.25 10.75 0.59 10.75 1C10.75 1.41 10.41 1.75 10 1.75H8C3.39 1.75 1.75 3.39 1.75 8V14C1.75 18.61 3.39 20.25 8 20.25H14C18.61 20.25 20.25 18.61 20.25 14V12C20.25 11.59 20.59 11.25 21 11.25C21.41 11.25 21.75 11.59 21.75 12V14C21.75 19.43 19.43 21.75 14 21.75Z" fill="#FF8900"/>
<path d="M18.85 8.83003C18.78 8.83003 18.71 8.82003 18.65 8.80003C17.3504 8.42998 16.1668 7.73425 15.2113 6.77875C14.2558 5.82326 13.5601 4.63964 13.19 3.34003C13.1374 3.14779 13.1625 2.94259 13.2597 2.76864C13.357 2.59469 13.5187 2.4659 13.71 2.41003C14.11 2.30003 14.52 2.53003 14.63 2.93003C15.23 5.06003 16.92 6.75003 19.05 7.35003C19.45 7.46003 19.68 7.88003 19.57 8.28003C19.48 8.62003 19.18 8.83003 18.85 8.83003Z" fill="#FF8900"/>
<path d="M7.50032 16.69C6.89032 16.69 6.33032 16.47 5.92032 16.07C5.43032 15.58 5.22032 14.87 5.33032 14.12L5.76032 11.11C5.84032 10.53 6.22032 9.78 6.63032 9.37L14.5103 1.49C16.5003 -0.500002 18.5203 -0.500002 20.5103 1.49C21.6003 2.58 22.0903 3.69 21.9903 4.8C21.9003 5.7 21.4203 6.58 20.5103 7.48L12.6303 15.36C12.2203 15.77 11.4703 16.15 10.8903 16.23L7.88032 16.66C7.75032 16.69 7.62032 16.69 7.50032 16.69ZM15.5703 2.55L7.69032 10.43C7.50032 10.62 7.28032 11.06 7.24032 11.32L6.81032 14.33C6.77032 14.62 6.83032 14.86 6.98032 15.01C7.13032 15.16 7.37032 15.22 7.66032 15.18L10.6703 14.75C10.9303 14.71 11.3803 14.49 11.5603 14.3L19.4403 6.42C20.0903 5.77 20.4303 5.19 20.4803 4.65C20.5403 4 20.2003 3.31 19.4403 2.54C17.8403 0.939998 16.7403 1.39 15.5703 2.55Z" fill="#FF8900"/>
</svg>
