<svg width="22" height="24" viewBox="0 0 22 24" fill="none" xmlns="http://www.w3.org/2000/svg">
<path d="M5.5168 9.40125C5.33778 9.40125 5.16609 9.47236 5.0395 9.59895C4.91291 9.72554 4.8418 9.89722 4.8418 10.0762C4.8418 10.2553 4.91291 10.427 5.0395 10.5535C5.16609 10.6801 5.33778 10.7512 5.5168 10.7512H12.7543C12.9333 10.7512 13.105 10.6801 13.2316 10.5535C13.3582 10.427 13.4293 10.2553 13.4293 10.0762C13.4293 9.89722 13.3582 9.72554 13.2316 9.59895C13.105 9.47236 12.9333 9.40125 12.7543 9.40125H5.5168ZM8.77105 13.233H5.5168C5.33778 13.233 5.16609 13.3041 5.0395 13.4307C4.91291 13.5573 4.8418 13.729 4.8418 13.908C4.8418 14.087 4.91291 14.2587 5.0395 14.3853C5.16609 14.5119 5.33778 14.583 5.5168 14.583H8.77105C8.95007 14.583 9.12176 14.5119 9.24834 14.3853C9.37493 14.2587 9.44605 14.087 9.44605 13.908C9.44605 13.729 9.37493 13.5573 9.24834 13.4307C9.12176 13.3041 8.95007 13.233 8.77105 13.233Z" fill="#79AC2B"/>
<path d="M8.67141 21.8249H3.53391C3.00195 21.8236 2.49227 21.6111 2.11682 21.2342C1.74136 20.8574 1.53082 20.3469 1.53141 19.8149V6.14245C1.53082 5.61048 1.74136 5.10002 2.11682 4.72316C2.49227 4.34629 3.00195 4.13384 3.53391 4.13245H4.92816V4.30195C4.92876 4.77531 5.11712 5.2291 5.4519 5.56374C5.78669 5.89839 6.24055 6.08655 6.71391 6.08695H13.1639C13.6373 6.08655 14.0911 5.89839 14.4259 5.56374C14.7607 5.2291 14.9491 4.77531 14.9497 4.30195V4.13245H16.3372C17.4599 4.13245 18.3389 5.0152 18.3389 6.14245V9.98995C18.3389 10.169 18.41 10.3407 18.5366 10.4672C18.6632 10.5938 18.8349 10.665 19.0139 10.665C19.1929 10.665 19.3646 10.5938 19.4912 10.4672C19.6178 10.3407 19.6889 10.169 19.6889 9.98995V6.14245C19.6889 5.25262 19.3359 4.39913 18.7074 3.76922C18.0789 3.13931 17.2262 2.78444 16.3364 2.78245H14.9489V2.60995C14.9483 2.13659 14.76 1.6828 14.4252 1.34816C14.0904 1.01351 13.6365 0.825348 13.1632 0.824951H6.71316C6.23981 0.825348 5.78594 1.01351 5.45115 1.34816C5.11637 1.6828 4.92801 2.13659 4.92741 2.60995V2.78245H3.53391C2.64402 2.78444 1.79124 3.13929 1.16262 3.76917C0.533996 4.39906 0.18086 5.25255 0.180664 6.14245V19.8149C0.180664 21.6674 1.68516 23.1749 3.53391 23.1749H8.67141C8.85044 23.1749 9.02212 23.1038 9.14871 22.9772C9.2753 22.8507 9.34641 22.679 9.34641 22.4999C9.34641 22.3209 9.2753 22.1492 9.14871 22.0227C9.02212 21.8961 8.85044 21.8249 8.67141 21.8249ZM6.27891 2.60995C6.27891 2.36995 6.47391 2.17495 6.71391 2.17495H13.1639C13.4039 2.17495 13.5989 2.36995 13.5989 2.60995V4.3012C13.5989 4.5412 13.4039 4.7362 13.1639 4.7362H6.71391C6.59854 4.7362 6.4879 4.69037 6.40632 4.60879C6.32474 4.52721 6.27891 4.41657 6.27891 4.3012V2.60995Z" fill="#79AC2B"/>
<path d="M21.1027 13.0184C20.1787 12.0937 18.5655 12.0929 17.6407 13.0184L11.6565 19.0027C11.4643 19.1944 11.3368 19.4414 11.292 19.7092L10.9635 21.6509C10.9288 21.8564 10.9439 22.0672 11.0073 22.2657C11.0708 22.4642 11.1808 22.6447 11.3282 22.792C11.4756 22.9393 11.6561 23.0492 11.8546 23.1126C12.0532 23.176 12.264 23.1909 12.4695 23.1562L14.4105 22.8284C14.6797 22.7827 14.9242 22.6567 15.117 22.4639L21.1012 16.4797C21.5595 16.0204 21.8171 15.3982 21.8174 14.7494C21.8176 14.1005 21.5606 13.4781 21.1027 13.0184ZM14.1862 21.4979L12.2955 21.8752L12.612 19.9574L16.9012 15.6682L18.4545 17.2214L14.1862 21.4979ZM20.1472 15.5249L19.4077 16.2659L17.8552 14.7134L18.5955 13.9732C18.6971 13.871 18.8179 13.79 18.951 13.7347C19.0841 13.6795 19.2269 13.6512 19.371 13.6514C19.5879 13.6516 19.8 13.7161 19.9803 13.8367C20.1607 13.9574 20.3012 14.1287 20.3843 14.3291C20.4673 14.5296 20.4891 14.7501 20.4469 14.963C20.4047 15.1758 20.3004 15.3713 20.1472 15.5249Z" fill="#79AC2B"/>
</svg>
