<svg width="18" height="22" viewBox="0 0 18 22" fill="none" xmlns="http://www.w3.org/2000/svg">
<path d="M8.99995 9.74897C6.38095 9.74897 4.25095 7.61898 4.25095 4.99998C4.25095 2.38098 6.38095 0.250977 8.99995 0.250977C11.619 0.250977 13.749 2.38098 13.749 4.99998C13.749 7.61898 11.619 9.74897 8.99995 9.74897ZM8.99995 1.75098C7.20895 1.75098 5.75095 3.20898 5.75095 4.99998C5.75095 6.79098 7.20895 8.24898 8.99995 8.24898C10.791 8.24898 12.249 6.79098 12.249 4.99998C12.249 3.20898 10.791 1.75098 8.99995 1.75098ZM8.99995 21.749C5.09395 21.749 2.78995 21.29 1.52695 20.264C0.941953 19.787 0.572953 19.184 0.395953 18.422C0.251953 17.801 0.251953 17.138 0.251953 16.502C0.251953 15.017 1.22095 13.655 2.97595 12.665C4.59595 11.753 6.73795 11.252 8.99995 11.252C11.265 11.252 13.404 11.753 15.024 12.665C16.782 13.655 17.748 15.017 17.748 16.502C17.748 17.141 17.748 17.801 17.604 18.422C17.427 19.187 17.055 19.787 16.473 20.264C15.21 21.293 12.906 21.749 8.99995 21.749ZM8.99995 12.749C6.98995 12.749 5.11195 13.184 3.71095 13.97C2.44795 14.681 1.74895 15.578 1.74895 16.499C1.74895 17.783 1.78195 18.539 2.47195 19.1C3.42295 19.874 5.55595 20.249 8.99695 20.249C12.438 20.249 14.574 19.874 15.522 19.1C16.212 18.539 16.245 17.783 16.245 16.499C16.245 15.581 15.549 14.681 14.283 13.97C12.888 13.184 11.01 12.749 8.99995 12.749Z" fill="#2175B2"/>
</svg>
