<svg width="20" height="20" viewBox="0 0 20 20" fill="none" xmlns="http://www.w3.org/2000/svg">
<path d="M11 13.5H10.75V8.25C10.7474 8.05189 10.6676 7.86263 10.5275 7.72253C10.3874 7.58244 10.1981 7.50259 10 7.5H9C8.80109 7.5 8.61032 7.57902 8.46967 7.71967C8.32902 7.86032 8.25 8.05109 8.25 8.25C8.25 8.44891 8.32902 8.63968 8.46967 8.78033C8.61032 8.92098 8.80109 9 9 9H9.25V13.5H9C8.80109 13.5 8.61032 13.579 8.46967 13.7197C8.32902 13.8603 8.25 14.0511 8.25 14.25C8.25 14.4489 8.32902 14.6397 8.46967 14.7803C8.61032 14.921 8.80109 15 9 15H11C11.1989 15 11.3897 14.921 11.5303 14.7803C11.671 14.6397 11.75 14.4489 11.75 14.25C11.75 14.0511 11.671 13.8603 11.5303 13.7197C11.3897 13.579 11.1989 13.5 11 13.5Z" fill="#C60F0F"/>
<path d="M9.75 6.75C10.3023 6.75 10.75 6.30228 10.75 5.75C10.75 5.19772 10.3023 4.75 9.75 4.75C9.19772 4.75 8.75 5.19772 8.75 5.75C8.75 6.30228 9.19772 6.75 9.75 6.75Z" fill="#C60F0F"/>
<path d="M10 19.75C8.07164 19.75 6.18657 19.1782 4.58319 18.1068C2.97982 17.0355 1.73013 15.5127 0.992179 13.7312C0.254224 11.9496 0.061142 9.98919 0.437348 8.09787C0.813554 6.20656 1.74215 4.46928 3.10571 3.10571C4.46928 1.74215 6.20656 0.813554 8.09787 0.437348C9.98919 0.061142 11.9496 0.254224 13.7312 0.992179C15.5127 1.73013 17.0355 2.97982 18.1068 4.58319C19.1782 6.18657 19.75 8.07164 19.75 10C19.7474 12.5851 18.7193 15.0635 16.8914 16.8914C15.0635 18.7193 12.5851 19.7474 10 19.75ZM10 1.75C8.36831 1.75 6.77326 2.23386 5.41655 3.14038C4.05984 4.0469 3.00242 5.33538 2.378 6.84287C1.75358 8.35036 1.5902 10.0092 1.90853 11.6095C2.22685 13.2098 3.01259 14.6799 4.16637 15.8336C5.32016 16.9874 6.79017 17.7732 8.39051 18.0915C9.99085 18.4098 11.6497 18.2464 13.1571 17.622C14.6646 16.9976 15.9531 15.9402 16.8596 14.5835C17.7661 13.2268 18.25 11.6317 18.25 10C18.2474 7.81278 17.3773 5.7159 15.8307 4.1693C14.2841 2.62269 12.1872 1.75265 10 1.75Z" fill="#C60F0F"/>
</svg>
