<svg width="21" height="21" viewBox="0 0 21 21" fill="none" xmlns="http://www.w3.org/2000/svg">
<path d="M15.7987 8.07799H10.7318C10.3362 8.07799 10.008 7.74985 10.008 7.35415C10.008 6.95845 10.3362 6.63031 10.7318 6.63031H15.7987C15.9907 6.63031 16.1748 6.70657 16.3105 6.84232C16.4463 6.97807 16.5225 7.16218 16.5225 7.35415C16.5225 7.54612 16.4463 7.73023 16.3105 7.86598C16.1748 8.00173 15.9907 8.07799 15.7987 8.07799ZM5.66499 8.81148C5.48162 8.81148 5.29824 8.74392 5.15348 8.59915L4.42964 7.87531C4.14976 7.59543 4.14976 7.13217 4.42964 6.85229C4.70952 6.57241 5.17278 6.57241 5.45266 6.85229L5.66499 7.06461L7.32499 5.40461C7.60487 5.12473 8.06813 5.12473 8.34801 5.40461C8.6279 5.6845 8.6279 6.14775 8.34801 6.42764L6.1765 8.59915C6.04088 8.73493 5.8569 8.81131 5.66499 8.81148ZM15.7987 14.8338H10.7318C10.3362 14.8338 10.008 14.5057 10.008 14.11C10.008 13.7143 10.3362 13.3861 10.7318 13.3861H15.7987C15.9907 13.3861 16.1748 13.4624 16.3105 13.5981C16.4463 13.7339 16.5225 13.918 16.5225 14.11C16.5225 14.3019 16.4463 14.486 16.3105 14.6218C16.1748 14.7575 15.9907 14.8338 15.7987 14.8338ZM5.66499 15.5673C5.48162 15.5673 5.29824 15.4997 5.15348 15.355L4.42964 14.6311C4.14976 14.3512 4.14976 13.888 4.42964 13.6081C4.70952 13.3282 5.17278 13.3282 5.45266 13.6081L5.66499 13.8204L7.32499 12.1604C7.60487 11.8805 8.06813 11.8805 8.34801 12.1604C8.6279 12.4403 8.6279 12.9036 8.34801 13.1835L6.1765 15.355C6.04088 15.4907 5.8569 15.5671 5.66499 15.5673Z" fill="#79AC2B"/>
<path d="M13.2703 20.75H7.47965C2.23907 20.75 0 18.5109 0 13.2703V7.47965C0 2.23907 2.23907 0 7.47965 0H13.2703C18.5109 0 20.75 2.23907 20.75 7.47965V13.2703C20.75 18.5109 18.5109 20.75 13.2703 20.75ZM7.47965 1.44767C3.03046 1.44767 1.44767 3.03046 1.44767 7.47965V13.2703C1.44767 17.7195 3.03046 19.3023 7.47965 19.3023H13.2703C17.7195 19.3023 19.3023 17.7195 19.3023 13.2703V7.47965C19.3023 3.03046 17.7195 1.44767 13.2703 1.44767H7.47965Z" fill="#79AC2B"/>
</svg>
