<svg width="21" height="20" viewBox="0 0 21 20" fill="none" xmlns="http://www.w3.org/2000/svg">
<path fill-rule="evenodd" clip-rule="evenodd" d="M10.6852 6.03796H5.28516C5.08624 6.03796 4.89548 5.95895 4.75483 5.81829C4.61417 5.67764 4.53516 5.48688 4.53516 5.28796C4.53516 5.08905 4.61417 4.89829 4.75483 4.75763C4.89548 4.61698 5.08624 4.53796 5.28516 4.53796H10.6852C10.8841 4.53796 11.0748 4.61698 11.2155 4.75763C11.3561 4.89829 11.4352 5.08905 11.4352 5.28796C11.4352 5.48688 11.3561 5.67764 11.2155 5.81829C11.0748 5.95895 10.8841 6.03796 10.6852 6.03796Z" fill="#FF8900"/>
<path fill-rule="evenodd" clip-rule="evenodd" d="M19.8894 12.896H15.8404C14.9282 12.895 14.0537 12.5323 13.4085 11.8874C12.7632 11.2426 12.4 10.3682 12.3984 9.45604C12.3998 8.54357 12.7628 7.66885 13.408 7.02364C14.0533 6.37842 14.928 6.01536 15.8404 6.01404H19.8884C20.0874 6.01404 20.2781 6.09306 20.4188 6.23371C20.5594 6.37436 20.6384 6.56513 20.6384 6.76404C20.6384 6.96295 20.5594 7.15372 20.4188 7.29437C20.2781 7.43502 20.0874 7.51404 19.8884 7.51404H15.8404C15.3256 7.51483 14.8321 7.71969 14.4681 8.08371C14.1041 8.44774 13.8992 8.94123 13.8984 9.45604C13.8984 10.525 14.7704 11.396 15.8404 11.396H19.8884C20.0874 11.396 20.2781 11.4751 20.4188 11.6157C20.5594 11.7564 20.6384 11.9471 20.6384 12.146C20.6384 12.345 20.5594 12.5357 20.4188 12.6764C20.2781 12.817 20.0883 12.896 19.8894 12.896Z" fill="#FF8900"/>
<path fill-rule="evenodd" clip-rule="evenodd" d="M16.2983 10.144H15.9863C15.7874 10.144 15.5966 10.065 15.456 9.92437C15.3153 9.78372 15.2363 9.59296 15.2363 9.39404C15.2363 9.19513 15.3153 9.00437 15.456 8.86371C15.5966 8.72306 15.7874 8.64404 15.9863 8.64404H16.2983C16.4972 8.64404 16.688 8.72306 16.8287 8.86371C16.9693 9.00437 17.0483 9.19513 17.0483 9.39404C17.0483 9.59296 16.9693 9.78372 16.8287 9.92437C16.688 10.065 16.4972 10.144 16.2983 10.144Z" fill="#FF8900"/>
<path fill-rule="evenodd" clip-rule="evenodd" d="M5.998 1.5C4.80546 1.50132 3.66215 1.97564 2.8189 2.8189C1.97564 3.66215 1.50132 4.80546 1.5 5.998V13.175C1.50132 14.3675 1.97564 15.5109 2.8189 16.3541C3.66215 17.1974 4.80546 17.6717 5.998 17.673H14.642C15.8344 17.6714 16.9774 17.197 17.8205 16.3538C18.6635 15.5105 19.1377 14.3674 19.139 13.175V5.998C19.1377 4.80564 18.6635 3.66247 17.8205 2.81925C16.9774 1.97602 15.8344 1.50159 14.642 1.5H5.998ZM14.642 19.173H5.998C4.4078 19.1711 2.88326 18.5386 1.75882 17.4142C0.634378 16.2897 0.00185261 14.7652 0 13.175V5.998C0.00185261 4.4078 0.634378 2.88326 1.75882 1.75882C2.88326 0.634378 4.4078 0.00185261 5.998 0H14.642C16.2321 0.0018531 17.7565 0.63441 18.8808 1.75888C20.0051 2.88335 20.6374 4.40789 20.639 5.998V13.175C20.6374 14.7651 20.0051 16.2896 18.8808 17.4141C17.7565 18.5386 16.2321 19.1711 14.642 19.173Z" fill="#FF8900"/>
</svg>
