<svg width="22" height="22" viewBox="0 0 22 22" fill="none" xmlns="http://www.w3.org/2000/svg">
<path fill-rule="evenodd" clip-rule="evenodd" d="M4.25 17H2.75C2.15326 17 1.58097 16.7629 1.15901 16.341C0.737053 15.919 0.5 15.3467 0.5 14.75V7.25C0.5 6.65326 0.737053 6.08097 1.15901 5.65901C1.58097 5.23705 2.15326 5 2.75 5H4.25V2.75C4.25 2.15326 4.48705 1.58097 4.90901 1.15901C5.33097 0.737053 5.90326 0.5 6.5 0.5H15.5C16.0967 0.5 16.669 0.737053 17.091 1.15901C17.5129 1.58097 17.75 2.15326 17.75 2.75V5H19.25C19.8467 5 20.419 5.23705 20.841 5.65901C21.2629 6.08097 21.5 6.65326 21.5 7.25V14.75C21.5 15.3467 21.2629 15.919 20.841 16.341C20.419 16.7629 19.8467 17 19.25 17H17.75V19.25C17.75 19.8467 17.5129 20.419 17.091 20.841C16.669 21.2629 16.0967 21.5 15.5 21.5H6.5C5.90326 21.5 5.33097 21.2629 4.90901 20.841C4.48705 20.419 4.25 19.8467 4.25 19.25V17ZM19.25 6.5H2.75C2.55109 6.5 2.36032 6.57902 2.21967 6.71967C2.07902 6.86032 2 7.05109 2 7.25V14.75C2 14.9489 2.07902 15.1397 2.21967 15.2803C2.36032 15.421 2.55109 15.5 2.75 15.5H4.25V13.25C4.25 12.6533 4.48705 12.081 4.90901 11.659C5.33097 11.2371 5.90326 11 6.5 11H15.5C16.0967 11 16.669 11.2371 17.091 11.659C17.5129 12.081 17.75 12.6533 17.75 13.25V15.5H19.25C19.4489 15.5 19.6397 15.421 19.7803 15.2803C19.921 15.1397 20 14.9489 20 14.75V7.25C20 7.05109 19.921 6.86032 19.7803 6.71967C19.6397 6.57902 19.4489 6.5 19.25 6.5ZM16.25 5V2.75C16.25 2.55109 16.171 2.36032 16.0303 2.21967C15.8897 2.07902 15.6989 2 15.5 2H6.5C6.30109 2 6.11032 2.07902 5.96967 2.21967C5.82902 2.36032 5.75 2.55109 5.75 2.75V5H16.25ZM5.75 13.25V19.25C5.75 19.4489 5.82902 19.6397 5.96967 19.7803C6.11032 19.921 6.30109 20 6.5 20H15.5C15.6989 20 15.8897 19.921 16.0303 19.7803C16.171 19.6397 16.25 19.4489 16.25 19.25V13.25C16.25 13.0511 16.171 12.8603 16.0303 12.7197C15.8897 12.579 15.6989 12.5 15.5 12.5H6.5C6.30109 12.5 6.11032 12.579 5.96967 12.7197C5.82902 12.8603 5.75 13.0511 5.75 13.25Z" fill="#FF8900"/>
<path fill-rule="evenodd" clip-rule="evenodd" d="M15.5 9.5C15.3011 9.5 15.1103 9.42098 14.9697 9.28033C14.829 9.13968 14.75 8.94891 14.75 8.75C14.75 8.55109 14.829 8.36032 14.9697 8.21967C15.1103 8.07902 15.3011 8 15.5 8H17.75C17.9489 8 18.1397 8.07902 18.2803 8.21967C18.421 8.36032 18.5 8.55109 18.5 8.75C18.5 8.94891 18.421 9.13968 18.2803 9.28033C18.1397 9.42098 17.9489 9.5 17.75 9.5H15.5Z" fill="#FF8900"/>
</svg>
