<svg width="20" height="20" viewBox="0 0 20 20" fill="none" xmlns="http://www.w3.org/2000/svg">
<path d="M10 19.75C8.07164 19.75 6.18657 19.1782 4.58319 18.1068C2.97982 17.0355 1.73013 15.5127 0.992179 13.7312C0.254224 11.9496 0.061142 9.98919 0.437348 8.09787C0.813554 6.20656 1.74215 4.46928 3.10571 3.10571C4.46928 1.74215 6.20656 0.813554 8.09787 0.437348C9.98919 0.061142 11.9496 0.254224 13.7312 0.992179C15.5127 1.73013 17.0355 2.97982 18.1068 4.58319C19.1782 6.18657 19.75 8.07164 19.75 10C19.7474 12.5851 18.7193 15.0635 16.8914 16.8914C15.0635 18.7193 12.5851 19.7474 10 19.75ZM10 1.75C8.36831 1.75 6.77326 2.23386 5.41655 3.14038C4.05984 4.0469 3.00242 5.33538 2.378 6.84287C1.75358 8.35036 1.5902 10.0092 1.90853 11.6095C2.22685 13.2098 3.01259 14.6799 4.16637 15.8336C5.32016 16.9874 6.79017 17.7732 8.39051 18.0915C9.99085 18.4098 11.6497 18.2464 13.1571 17.622C14.6646 16.9976 15.9531 15.9402 16.8596 14.5835C17.7661 13.2268 18.25 11.6317 18.25 10C18.2474 7.81278 17.3773 5.7159 15.8307 4.1693C14.2841 2.62269 12.1872 1.75265 10 1.75Z" fill="#C60F0F"/>
<path d="M11.0603 9.99997L13.5303 7.52997C13.6628 7.38779 13.7349 7.19975 13.7315 7.00545C13.7281 6.81115 13.6494 6.62576 13.5119 6.48835C13.3745 6.35093 13.1891 6.27222 12.9948 6.26879C12.8005 6.26537 12.6125 6.33749 12.4703 6.46997L10.0003 8.93997L7.53032 6.46997C7.38814 6.33749 7.2001 6.26537 7.00579 6.26879C6.81149 6.27222 6.62611 6.35093 6.4887 6.48835C6.35128 6.62576 6.27257 6.81115 6.26914 7.00545C6.26571 7.19975 6.33784 7.38779 6.47032 7.52997L8.94032 9.99997L6.47032 12.47C6.32987 12.6106 6.25098 12.8012 6.25098 13C6.25098 13.1987 6.32987 13.3893 6.47032 13.53C6.61094 13.6704 6.80157 13.7493 7.00032 13.7493C7.19907 13.7493 7.38969 13.6704 7.53032 13.53L10.0003 11.06L12.4703 13.53C12.6109 13.6704 12.8016 13.7493 13.0003 13.7493C13.1991 13.7493 13.3897 13.6704 13.5303 13.53C13.6708 13.3893 13.7497 13.1987 13.7497 13C13.7497 12.8012 13.6708 12.6106 13.5303 12.47L11.0603 9.99997Z" fill="#C60F0F"/>
</svg>
