<svg width="24" height="24" viewBox="0 0 24 24" fill="none" xmlns="http://www.w3.org/2000/svg">
<path d="M0.75 3.75C0.75 2.95435 1.06607 2.19129 1.62868 1.62868C2.19129 1.06607 2.95435 0.75 3.75 0.75H17.25C18.0456 0.75 18.8087 1.06607 19.3713 1.62868C19.9339 2.19129 20.25 2.95435 20.25 3.75V10.7854C19.7704 10.5623 19.2672 10.3938 18.75 10.2829V3.75C18.75 3.35218 18.592 2.97064 18.3107 2.68934C18.0294 2.40804 17.6478 2.25 17.25 2.25H3.75C3.35218 2.25 2.97064 2.40804 2.68934 2.68934C2.40804 2.97064 2.25 3.35218 2.25 3.75V17.0685C2.80463 16.6969 3.4574 16.499 4.125 16.5H10.164C10.1118 16.9986 10.1118 17.5014 10.164 18H4.125C3.62772 18 3.15081 18.1975 2.79917 18.5492C2.44754 18.9008 2.25 19.3777 2.25 19.875C2.25 20.3723 2.44754 20.8492 2.79917 21.2008C3.15081 21.5525 3.62772 21.75 4.125 21.75H11.7255C12.2029 22.3354 12.7699 22.8417 13.4055 23.25H4.125C3.22989 23.25 2.37145 22.8944 1.73851 22.2615C1.10558 21.6285 0.75 20.7701 0.75 19.875V3.75Z" fill="#FF8900"/>
<path d="M17.25 13.875C17.4489 13.875 17.6397 13.954 17.7803 14.0947C17.921 14.2353 18 14.4261 18 14.625V16.5H19.875C20.0739 16.5 20.2647 16.579 20.4053 16.7197C20.546 16.8603 20.625 17.0511 20.625 17.25C20.625 17.4489 20.546 17.6397 20.4053 17.7803C20.2647 17.921 20.0739 18 19.875 18H18V19.875C18 20.0739 17.921 20.2647 17.7803 20.4053C17.6397 20.546 17.4489 20.625 17.25 20.625C17.0511 20.625 16.8603 20.546 16.7197 20.4053C16.579 20.2647 16.5 20.0739 16.5 19.875V18H14.625C14.4261 18 14.2353 17.921 14.0947 17.7803C13.954 17.6397 13.875 17.4489 13.875 17.25C13.875 17.0511 13.954 16.8603 14.0947 16.7197C14.2353 16.579 14.4261 16.5 14.625 16.5H16.5V14.625C16.5 14.4261 16.579 14.2353 16.7197 14.0947C16.8603 13.954 17.0511 13.875 17.25 13.875Z" fill="#FF8900"/>
<path fill-rule="evenodd" clip-rule="evenodd" d="M17.25 11.25C20.5639 11.25 23.25 13.9361 23.25 17.25C23.25 20.5639 20.5639 23.25 17.25 23.25C13.9361 23.25 11.25 20.5639 11.25 17.25C11.25 13.9361 13.9361 11.25 17.25 11.25ZM21.75 17.25C21.75 14.7649 19.7351 12.75 17.25 12.75C14.7649 12.75 12.75 14.7649 12.75 17.25C12.75 19.7351 14.7649 21.75 17.25 21.75C19.7351 21.75 21.75 19.7351 21.75 17.25Z" fill="#FF8900"/>
</svg>
