<svg width="23" height="16" viewBox="0 0 23 16" fill="none" xmlns="http://www.w3.org/2000/svg">
<path d="M22.0174 6.30447C19.6468 2.35632 15.6193 0 11.2444 0C6.86959 0 2.84204 2.35632 0.470305 6.30447C0.162578 6.81649 0 7.40262 0 8C0 8.59738 0.162578 9.18351 0.470305 9.69553C2.84085 13.6437 6.86841 16 11.2432 16C15.6181 16 19.6456 13.6437 22.0174 9.69553C22.3251 9.18351 22.4877 8.59738 22.4877 8C22.4877 7.40262 22.3251 6.81649 22.0174 6.30447ZM20.4943 8.78169C18.4462 12.1882 14.9887 14.2233 11.2444 14.2233C7.50016 14.2233 4.04272 12.1882 1.99575 8.78169C1.85383 8.54587 1.77883 8.27583 1.77883 8.00059C1.77883 7.72536 1.85383 7.45532 1.99575 7.2195C4.0439 3.81302 7.50134 1.77791 11.2456 1.77791C14.9899 1.77791 18.4473 3.81302 20.4943 7.2195C20.7835 7.70072 20.7835 8.30047 20.4943 8.78169ZM11.2444 3.55582C8.79448 3.55582 6.79966 5.55063 6.79966 8.00059C6.79966 10.4506 8.79448 12.4454 11.2444 12.4454C13.6944 12.4454 15.6892 10.4506 15.6892 8.00059C15.6892 5.55063 13.6944 3.55582 11.2444 3.55582ZM11.2444 10.6675C9.7747 10.6675 8.57757 9.47033 8.57757 8.00059C8.57757 6.53085 9.7747 5.33373 11.2444 5.33373C12.7142 5.33373 13.9113 6.53085 13.9113 8.00059C13.9113 9.47033 12.7142 10.6675 11.2444 10.6675Z" fill="#2175B2"/>
</svg>
