<svg width="12" height="12" viewBox="0 0 12 12" fill="none" xmlns="http://www.w3.org/2000/svg">
<path d="M6 11C8.76142 11 11 8.76142 11 6C11 3.23858 8.76142 1 6 1C3.23858 1 1 3.23858 1 6C1 8.76142 3.23858 11 6 11Z" stroke="#203565" stroke-linecap="round" stroke-linejoin="round"/>
<path d="M7.85 4.57143C7.93284 4.57143 8 4.52346 8 4.46429V4.10714C8 4.04797 7.93284 4 7.85 4H4.15C4.06716 4 4 4.04797 4 4.10714V4.50668C4 4.56585 4.06716 4.61382 4.15 4.61382H5.216C5.55735 4.61382 5.81926 4.70273 5.97813 4.85714H4.15C4.06716 4.85714 4 4.90512 4 4.96429V5.32143C4 5.3806 4.06716 5.42857 4.15 5.42857H6.13446C6.05675 5.75077 5.72245 5.95207 5.2 5.95207H4.15C4.06716 5.95207 4 6.00004 4 6.05921V6.53254C4 6.56244 4.0175 6.59098 4.04826 6.61127L6.11141 7.97159C6.13912 7.98986 6.17544 8 6.21315 8H7.24518C7.38173 8 7.44725 7.88029 7.34691 7.81413L5.46089 6.57059C6.41713 6.5497 7.10019 6.09385 7.18986 5.42857H7.85C7.93284 5.42857 8 5.3806 8 5.32143V4.96429C8 4.90512 7.93284 4.85714 7.85 4.85714H7.11638C7.0728 4.7541 7.01288 4.65852 6.93823 4.57143H7.85Z" fill="#203565"/>
</svg>
