<svg width="36" height="36" viewBox="0 0 36 36" fill="none" xmlns="http://www.w3.org/2000/svg">
<rect width="36" height="36" rx="7" fill="white"/>
<path d="M20.5648 19.6092L17.1106 23.0634L13.6563 19.6092C11.0675 19.7214 9 21.8396 9 24.4538V24.8014C9 25.7609 9.77847 26.5394 10.738 26.5394H23.4832C24.4427 26.5394 25.2212 25.7609 25.2212 24.8014V24.4538C25.2212 21.8396 23.1537 19.7214 20.5648 19.6092ZM9.49243 10.8903L9.72416 10.9446V13.0592C9.4707 13.2112 9.28966 13.4756 9.28966 13.7942C9.28966 14.0983 9.45622 14.3518 9.69157 14.5075L9.12673 16.7632C9.06517 17.0131 9.20276 17.2702 9.40191 17.2702H10.9154C11.1145 17.2702 11.2521 17.0131 11.1906 16.7632L10.6257 14.5075C10.8611 14.3518 11.0276 14.0983 11.0276 13.7942C11.0276 13.4756 10.8466 13.2112 10.5932 13.0592V11.1546L12.9829 11.7303C12.6715 12.3531 12.476 13.0483 12.476 13.7942C12.476 16.3541 14.5507 18.4288 17.1106 18.4288C19.6705 18.4288 21.7452 16.3541 21.7452 13.7942C21.7452 13.0483 21.5533 12.3531 21.2383 11.7303L24.7251 10.8903C25.3841 10.731 25.3841 9.90907 24.7251 9.74975L17.8311 8.08418C17.3604 7.97194 16.8644 7.97194 16.3937 8.08418L9.49243 9.74613C8.83706 9.90545 8.83706 10.731 9.49243 10.8903Z" fill="black"/>
<path d="M29.0003 24.5899C29.0003 27.0331 27.0196 29.0138 24.5763 29.0138C22.133 29.0138 20.1523 27.0331 20.1523 24.5899C20.1523 22.1466 22.133 20.1659 24.5763 20.1659C27.0196 20.1659 29.0003 22.1466 29.0003 24.5899Z" fill="white"/>
<path d="M29.0003 24.5899C29.0003 27.0331 27.0196 29.0138 24.5763 29.0138C22.133 29.0138 20.1523 27.0331 20.1523 24.5899C20.1523 22.1466 22.133 20.1659 24.5763 20.1659C27.0196 20.1659 29.0003 22.1466 29.0003 24.5899Z" stroke="white"/>
<path d="M27.1838 24.6427C27.1838 26.1265 25.981 27.3294 24.4972 27.3294C23.0134 27.3294 21.8105 26.1265 21.8105 24.6427C21.8105 23.1589 23.0134 21.9561 24.4972 21.9561C25.981 21.9561 27.1838 23.1589 27.1838 24.6427Z" fill="white" stroke="black" stroke-width="2"/>
<ellipse cx="24.5757" cy="24.5897" rx="0.368664" ry="0.368664" fill="black"/>
<rect x="24.7119" y="24.7988" width="0.493264" height="2.01058" rx="0.246632" transform="rotate(-117.186 24.7119 24.7988)" fill="black"/>
</svg>
