<svg width="14" height="16" viewBox="0 0 14 16" fill="none" xmlns="http://www.w3.org/2000/svg">
<path d="M9.98125 10.0195L7 13.0008L4.01875 10.0195C1.78438 10.1164 0 11.9445 0 14.2008V14.5008C0 15.3289 0.671875 16.0008 1.5 16.0008H12.5C13.3281 16.0008 14 15.3289 14 14.5008V14.2008C14 11.9445 12.2156 10.1164 9.98125 10.0195ZM0.425 2.49453L0.625 2.54141V4.36641C0.40625 4.49766 0.25 4.72578 0.25 5.00078C0.25 5.26328 0.39375 5.48203 0.596875 5.61641L0.109375 7.56328C0.05625 7.77891 0.175 8.00078 0.346875 8.00078H1.65313C1.825 8.00078 1.94375 7.77891 1.89062 7.56328L1.40313 5.61641C1.60625 5.48203 1.75 5.26328 1.75 5.00078C1.75 4.72578 1.59375 4.49766 1.375 4.36641V2.72266L3.4375 3.21953C3.16875 3.75703 3 4.35703 3 5.00078C3 7.21016 4.79063 9.00078 7 9.00078C9.20938 9.00078 11 7.21016 11 5.00078C11 4.35703 10.8344 3.75703 10.5625 3.21953L13.5719 2.49453C14.1406 2.35703 14.1406 1.64766 13.5719 1.51016L7.62187 0.0726562C7.21562 -0.0242188 6.7875 -0.0242188 6.38125 0.0726562L0.425 1.50703C-0.140625 1.64453 -0.140625 2.35703 0.425 2.49453Z" fill="#01329C"/>
</svg>
