<svg width="16" height="13" viewBox="0 0 16 13" fill="none" xmlns="http://www.w3.org/2000/svg">
<path d="M5.6 6.4C7.3675 6.4 8.79999 4.9675 8.79999 3.2C8.79999 1.4325 7.3675 0 5.6 0C3.8325 0 2.4 1.4325 2.4 3.2C2.4 4.9675 3.8325 6.4 5.6 6.4ZM7.84 7.2H7.4225C6.8675 7.455 6.25 7.6 5.6 7.6C4.95 7.6 4.335 7.455 3.7775 7.2H3.36C1.505 7.2 0 8.705 0 10.56V11.6C0 12.2625 0.5375 12.8 1.2 12.8H9.99999C10.6625 12.8 11.2 12.2625 11.2 11.6V10.56C11.2 8.705 9.69499 7.2 7.84 7.2ZM15.915 3.99L15.22 3.2875C15.105 3.17 14.9175 3.17 14.8 3.285L12.18 5.885L11.0425 4.74C10.9275 4.6225 10.74 4.6225 10.6225 4.7375L9.91999 5.435C9.80249 5.55 9.8025 5.7375 9.91749 5.855L11.96 7.9125C12.075 8.03 12.2625 8.03 12.38 7.915L15.9125 4.41C16.0275 4.2925 16.03 4.105 15.915 3.99Z" fill="#01329C"/>
</svg>
