<svg width="17" height="14" viewBox="0 0 17 14" fill="none" xmlns="http://www.w3.org/2000/svg">
<path d="M13.175 5.95C11.0606 5.95 9.35 7.66063 9.35 9.775C9.35 11.8894 11.0606 13.6 13.175 13.6C15.2894 13.6 17 11.8894 17 9.775C17 7.66063 15.2894 5.95 13.175 5.95ZM14.875 9.94235C14.875 10.0831 14.7581 10.2 14.6173 10.2H13.0077C12.8669 10.2 12.75 10.0831 12.75 9.94235V7.90766C12.75 7.76688 12.8669 7.65 13.0077 7.65H13.3423C13.4831 7.65 13.6 7.76688 13.6 7.90766V9.35H14.6173C14.7581 9.35 14.875 9.46688 14.875 9.60766V9.94235ZM8.5 9.775C8.5 9.03656 8.67797 8.33797 8.98344 7.71641C8.77094 7.67656 8.55313 7.65 8.33 7.65H7.88641C7.29672 7.92094 6.64062 8.075 5.95 8.075C5.25938 8.075 4.60594 7.92094 4.01359 7.65H3.57C1.59906 7.65 0 9.24906 0 11.22V12.325C0 13.0289 0.571094 13.6 1.275 13.6H10.4948C9.29156 12.7527 8.5 11.3555 8.5 9.775ZM5.95 6.8C7.82797 6.8 9.35 5.27797 9.35 3.4C9.35 1.52203 7.82797 0 5.95 0C4.07203 0 2.55 1.52203 2.55 3.4C2.55 5.27797 4.07203 6.8 5.95 6.8Z" fill="#01329C"/>
</svg>
