<svg width="9" height="9" viewBox="0 0 9 9" fill="none" xmlns="http://www.w3.org/2000/svg">
<path d="M0 3.85714H3.85714V0H0V3.85714ZM1.28571 1.28571H2.57143V2.57143H1.28571V1.28571ZM5.14286 0V3.85714H9V0H5.14286ZM7.71429 2.57143H6.42857V1.28571H7.71429V2.57143ZM0 9H3.85714V5.14286H0V9ZM1.28571 6.42857H2.57143V7.71429H1.28571V6.42857ZM8.35714 5.14286H9V7.71429H7.07143V7.07143H6.42857V9H5.14286V5.14286H7.07143V5.78571H8.35714V5.14286ZM8.35714 8.35714H9V9H8.35714V8.35714ZM7.07143 8.35714H7.71429V9H7.07143V8.35714Z" fill="white"/>
</svg>
