<svg width="21" height="22" viewBox="0 0 21 22" fill="none" xmlns="http://www.w3.org/2000/svg">
<rect x="5" y="17" width="2" height="3" fill="black"/>
<rect x="9" y="16" width="2" height="4" fill="black"/>
<rect x="13" y="14" width="2" height="6" fill="black"/>
<path d="M6 16L8.50947 13.4905C8.75079 13.2492 9.15761 13.3152 9.31024 13.6205L9.68976 14.3795C9.84239 14.6848 10.2492 14.7508 10.4905 14.5095L13.5 11.5" stroke="black" stroke-width="0.5"/>
<path d="M11.5 11L13.1213 11.4053C13.3439 11.461 13.5 11.661 13.5 11.8904V13.5" stroke="black" stroke-width="0.5"/>
<path d="M17.5103 3H3.40216C2.28906 3 1.38672 3.89543 1.38672 5V19C1.38672 20.1046 2.28906 21 3.40216 21H17.5103C18.6234 21 19.5257 20.1046 19.5257 19V5C19.5257 3.89543 18.6234 3 17.5103 3Z" stroke="black" stroke-width="2" stroke-linecap="round" stroke-linejoin="round"/>
<path d="M14.4863 1V5" stroke="black" stroke-width="2" stroke-linecap="round" stroke-linejoin="round"/>
<path d="M6.42383 1V5" stroke="black" stroke-width="2" stroke-linecap="round" stroke-linejoin="round"/>
<path d="M1.38672 9H19.5257" stroke="black" stroke-width="2" stroke-linecap="round" stroke-linejoin="round"/>
</svg>
