<svg width="4" height="7" viewBox="0 0 4 7" fill="none" xmlns="http://www.w3.org/2000/svg">
<path d="M3.85 1.77121C3.93284 1.77121 4 1.69925 4 1.61049V1.07478C4 0.986022 3.93284 0.914062 3.85 0.914062H0.15C0.0671625 0.914062 0 0.986022 0 1.07478V1.67408C0 1.76283 0.0671625 1.83479 0.15 1.83479H1.216C1.55735 1.83479 1.81926 1.96816 1.97812 2.19978H0.15C0.0671625 2.19978 0 2.27174 0 2.36049V2.89621C0 2.98496 0.0671625 3.05692 0.15 3.05692H2.13446C2.05675 3.54021 1.72245 3.84217 1.2 3.84217H0.15C0.0671625 3.84217 0 3.91413 0 4.00288V4.71287C0 4.75772 0.0175 4.80054 0.0482625 4.83096L2.11141 6.87145C2.13912 6.89885 2.17544 6.91406 2.21315 6.91406H3.24518C3.38173 6.91406 3.44725 6.73449 3.34691 6.63525L1.46089 4.76995C2.41712 4.73861 3.10019 4.05483 3.18986 3.05692H3.85C3.93284 3.05692 4 2.98496 4 2.89621V2.36049C4 2.27174 3.93284 2.19978 3.85 2.19978H3.11637C3.0728 2.04521 3.01288 1.90184 2.93823 1.77121H3.85Z" fill="#fff"/>
</svg>
