<svg width="15" height="22" viewBox="0 0 15 22" fill="none" xmlns="http://www.w3.org/2000/svg">
<path d="M13.9211 3.62802C14.215 3.62802 14.4533 3.38042 14.4533 3.07502V1.23171C14.4533 0.926315 14.215 0.678711 13.9211 0.678711H0.792024C0.498084 0.678711 0.259766 0.926315 0.259766 1.23171V3.29383C0.259766 3.59922 0.498084 3.84682 0.792024 3.84682H4.57461C5.78585 3.84682 6.71521 4.30571 7.27892 5.10267H0.792024C0.498084 5.10267 0.259766 5.35028 0.259766 5.65567V7.49899C0.259766 7.80438 0.498084 8.05198 0.792024 8.05198H7.83367C7.55791 9.71493 6.37169 10.7539 4.51783 10.7539H0.792024C0.498084 10.7539 0.259766 11.0015 0.259766 11.3069V13.7499C0.259766 13.9042 0.321862 14.0515 0.43102 14.1562L7.75188 21.1772C7.8502 21.2715 7.97908 21.3239 8.11288 21.3239H11.7749C12.2594 21.3239 12.4919 20.706 12.1359 20.3645L5.44356 13.9463C8.83666 13.8384 11.2604 11.4857 11.5786 8.05198H13.9211C14.215 8.05198 14.4533 7.80438 14.4533 7.49899V5.65567C14.4533 5.35028 14.215 5.10267 13.9211 5.10267H11.3179C11.1633 4.57083 10.9506 4.07751 10.6857 3.62802H13.9211Z" fill="white"/>
</svg>
