<svg width="25" height="24" viewBox="0 0 25 24" fill="none" xmlns="http://www.w3.org/2000/svg">
<path d="M12.4548 15C14.1245 15 15.478 13.6569 15.478 12C15.478 10.3431 14.1245 9 12.4548 9C10.7852 9 9.43164 10.3431 9.43164 12C9.43164 13.6569 10.7852 15 12.4548 15Z" stroke="#fff" stroke-width="2" stroke-linecap="round" stroke-linejoin="round"/>
<path d="M19.9132 15C19.779 15.3016 19.739 15.6362 19.7983 15.9606C19.8576 16.285 20.0134 16.5843 20.2457 16.82L20.3062 16.88C20.4936 17.0657 20.6422 17.2863 20.7437 17.5291C20.8451 17.7719 20.8973 18.0322 20.8973 18.295C20.8973 18.5578 20.8451 18.8181 20.7437 19.0609C20.6422 19.3037 20.4936 19.5243 20.3062 19.71C20.119 19.896 19.8967 20.0435 19.6521 20.1441C19.4074 20.2448 19.1451 20.2966 18.8803 20.2966C18.6154 20.2966 18.3531 20.2448 18.1085 20.1441C17.8638 20.0435 17.6415 19.896 17.4543 19.71L17.3939 19.65C17.1564 19.4195 16.8547 19.2648 16.5278 19.206C16.2009 19.1472 15.8638 19.1869 15.5598 19.32C15.2618 19.4468 15.0076 19.6572 14.8285 19.9255C14.6495 20.1938 14.5534 20.5082 14.5521 20.83V21C14.5521 21.5304 14.3398 22.0391 13.9618 22.4142C13.5838 22.7893 13.0712 23 12.5367 23C12.0021 23 11.4895 22.7893 11.1115 22.4142C10.7336 22.0391 10.5212 21.5304 10.5212 21V20.91C10.5134 20.579 10.4054 20.258 10.2113 19.9887C10.0173 19.7194 9.746 19.5143 9.43287 19.4C9.12892 19.2669 8.79176 19.2272 8.46486 19.286C8.13796 19.3448 7.83631 19.4995 7.59882 19.73L7.53835 19.79C7.35117 19.976 7.12889 20.1235 6.88422 20.2241C6.63955 20.3248 6.37729 20.3766 6.11243 20.3766C5.84757 20.3766 5.5853 20.3248 5.34063 20.2241C5.09596 20.1235 4.87368 19.976 4.6865 19.79C4.49911 19.6043 4.35045 19.3837 4.24903 19.1409C4.1476 18.8981 4.0954 18.6378 4.0954 18.375C4.0954 18.1122 4.1476 17.8519 4.24903 17.6091C4.35045 17.3663 4.49911 17.1457 4.6865 16.96L4.74696 16.9C4.97928 16.6643 5.13512 16.365 5.1944 16.0406C5.25367 15.7162 5.21365 15.3816 5.07951 15.08C4.95177 14.7842 4.73966 14.532 4.4693 14.3543C4.19894 14.1766 3.88212 14.0813 3.55785 14.08H3.38654C2.85201 14.08 2.33937 13.8693 1.9614 13.4942C1.58343 13.1191 1.37109 12.6104 1.37109 12.08C1.37109 11.5496 1.58343 11.0409 1.9614 10.6658C2.33937 10.2907 2.85201 10.08 3.38654 10.08H3.47723C3.81078 10.0723 4.13427 9.96512 4.40565 9.77251C4.67702 9.5799 4.88373 9.31074 4.99889 9C5.13304 8.69838 5.17305 8.36381 5.11378 8.03941C5.0545 7.71502 4.89866 7.41568 4.66634 7.18L4.60588 7.12C4.41849 6.93425 4.26984 6.71368 4.16841 6.47088C4.06698 6.22808 4.01478 5.96783 4.01478 5.705C4.01478 5.44217 4.06698 5.18192 4.16841 4.93912C4.26984 4.69632 4.41849 4.47575 4.60588 4.29C4.79306 4.10405 5.01534 3.95653 5.26001 3.85588C5.50468 3.75523 5.76695 3.70343 6.03181 3.70343C6.29667 3.70343 6.55893 3.75523 6.8036 3.85588C7.04827 3.95653 7.27055 4.10405 7.45773 4.29L7.5182 4.35C7.7557 4.58054 8.05735 4.73519 8.38425 4.794C8.71115 4.85282 9.04831 4.81312 9.35225 4.68H9.43287C9.73092 4.55324 9.98512 4.34276 10.1642 4.07447C10.3432 3.80618 10.4393 3.49179 10.4406 3.17V3C10.4406 2.46957 10.6529 1.96086 11.0309 1.58579C11.4089 1.21071 11.9215 1 12.456 1C12.9906 1 13.5032 1.21071 13.8812 1.58579C14.2591 1.96086 14.4715 2.46957 14.4715 3V3.09C14.4728 3.41179 14.5689 3.72618 14.7479 3.99447C14.927 4.26276 15.1811 4.47324 15.4792 4.6C15.7831 4.73312 16.1203 4.77282 16.4472 4.714C16.7741 4.65519 17.0758 4.50054 17.3133 4.27L17.3737 4.21C17.5609 4.02405 17.7832 3.87653 18.0279 3.77588C18.2725 3.67523 18.5348 3.62343 18.7996 3.62343C19.0645 3.62343 19.3268 3.67523 19.5714 3.77588C19.8161 3.87653 20.0384 4.02405 20.2256 4.21C20.413 4.39575 20.5616 4.61632 20.663 4.85912C20.7645 5.10192 20.8167 5.36217 20.8167 5.625C20.8167 5.88783 20.7645 6.14808 20.663 6.39088C20.5616 6.63368 20.413 6.85425 20.2256 7.04L20.1651 7.1C19.9328 7.33568 19.7769 7.63502 19.7177 7.95941C19.6584 8.28381 19.6984 8.61838 19.8326 8.92V9C19.9603 9.29577 20.1724 9.54802 20.4428 9.72569C20.7131 9.90337 21.0299 9.99872 21.3542 10H21.5255C22.0601 10 22.5727 10.2107 22.9507 10.5858C23.3286 10.9609 23.541 11.4696 23.541 12C23.541 12.5304 23.3286 13.0391 22.9507 13.4142C22.5727 13.7893 22.0601 14 21.5255 14H21.4348C21.1106 14.0013 20.7938 14.0966 20.5234 14.2743C20.253 14.452 20.0409 14.7042 19.9132 15Z" stroke="#fff" stroke-width="2" stroke-linecap="round" stroke-linejoin="round"/>
</svg>
