<svg width="26" height="20" viewBox="0 0 26 20" fill="none" xmlns="http://www.w3.org/2000/svg">
<path d="M20.251 9.90783L23.9999 6.216L24.3399 6.55701L19.5384 11.2847L17.0778 8.82502L17.423 8.48486L18.8426 9.90282L19.5443 10.6037L20.251 9.90783ZM13.2273 5C13.2273 7.2022 11.4267 9 9.18866 9C6.95064 9 5.15005 7.2022 5.15005 5C5.15005 2.7978 6.95064 1 9.18866 1C11.4267 1 13.2273 2.7978 13.2273 5ZM9.18866 12.875C10.2813 12.875 11.3227 12.6494 12.268 12.25H12.7157C15.0915 12.25 17.0062 14.1611 17.0062 16.5V18.125C17.0062 18.6006 16.6149 19 16.1168 19H2.26057C1.76244 19 1.37109 18.6006 1.37109 18.125V16.5C1.37109 14.1611 3.28583 12.25 5.66163 12.25H6.11006C7.05681 12.6489 8.09475 12.875 9.18866 12.875Z" stroke="#ffff" stroke-width="2"/>
</svg>
