<svg width="17" height="12" viewBox="0 0 17 12" fill="none" xmlns="http://www.w3.org/2000/svg">
<path d="M16.8973 5.23577C15.2968 2.1129 12.1281 0 8.5 0C4.87185 0 1.70235 2.11438 0.102692 5.23607C0.0351769 5.36962 0 5.51718 0 5.66683C0 5.81647 0.0351769 5.96403 0.102692 6.09758C1.70323 9.22045 4.87185 11.3334 8.5 11.3334C12.1281 11.3334 15.2977 9.21898 16.8973 6.09729C16.9648 5.96373 17 5.81618 17 5.66653C17 5.51688 16.9648 5.36933 16.8973 5.23577ZM8.5 9.91669C7.65943 9.91669 6.83773 9.66743 6.13882 9.20043C5.43991 8.73343 4.89518 8.06967 4.5735 7.29309C4.25183 6.5165 4.16767 5.66196 4.33165 4.83754C4.49564 4.01312 4.90042 3.25584 5.49479 2.66147C6.08916 2.06709 6.84644 1.66232 7.67086 1.49833C8.49529 1.33434 9.34982 1.41851 10.1264 1.74018C10.903 2.06186 11.5668 2.60659 12.0338 3.3055C12.5007 4.00441 12.75 4.82611 12.75 5.66668C12.7503 6.22487 12.6405 6.77765 12.427 7.29341C12.2136 7.80916 11.9005 8.27779 11.5058 8.67249C11.1111 9.0672 10.6425 9.38024 10.1267 9.59373C9.61097 9.80721 9.0582 9.91696 8.5 9.91669ZM8.5 2.83334C8.2471 2.83687 7.99584 2.8745 7.753 2.9452C7.95317 3.21722 8.04923 3.55197 8.02375 3.88874C7.99828 4.22551 7.85295 4.542 7.61414 4.78082C7.37533 5.01963 7.05884 5.16495 6.72206 5.19043C6.38529 5.21591 6.05054 5.11985 5.77852 4.91968C5.62362 5.49036 5.65158 6.09524 5.85847 6.6492C6.06535 7.20315 6.44075 7.67828 6.93181 8.00771C7.42287 8.33714 8.00488 8.50428 8.59591 8.48561C9.18694 8.46694 9.75724 8.2634 10.2265 7.90363C10.6958 7.54386 11.0405 7.04599 11.212 6.48008C11.3835 5.91417 11.3732 5.30873 11.1826 4.74896C10.992 4.1892 10.6307 3.7033 10.1494 3.35966C9.6682 3.01603 9.09132 2.83195 8.5 2.83334Z" fill="#fff"/>
</svg>
