<svg width="22" height="19" viewBox="0 0 22 19" fill="none" xmlns="http://www.w3.org/2000/svg">
<path d="M3.18804 17.1207C3.19237 17.1161 3.19732 17.1109 3.20285 17.105C3.19803 17.1103 3.19312 17.1156 3.18812 17.1208L3.18804 17.1207ZM1.76376 15.7169L1.75587 15.7248L1.74816 15.7328C1.38869 16.1057 1.29897 16.652 1.50152 17.1158C1.70681 17.5859 2.16438 17.875 2.66221 17.875C4.83725 17.875 6.52843 16.9903 7.53904 16.2854C8.60133 16.6226 9.75333 16.8125 10.9602 16.8125C16.0318 16.8125 20.5258 13.4639 20.5258 8.90625C20.5258 4.34856 16.0318 1 10.9602 1C5.88858 1 1.39453 4.34856 1.39453 8.90625C1.39453 10.6446 2.06997 12.2252 3.17174 13.4995C2.97707 13.9991 2.69299 14.4825 2.412 14.8887C2.10336 15.3348 1.83386 15.6374 1.7733 15.7054C1.76095 15.7192 1.75729 15.7234 1.76376 15.7169ZM6.67735 8.96875C6.63014 8.96875 6.60665 8.93442 6.60665 8.90625C6.60665 8.87808 6.63014 8.84375 6.67735 8.84375C6.72456 8.84375 6.74805 8.87808 6.74805 8.90625C6.74805 8.93442 6.72456 8.96875 6.67735 8.96875ZM10.9602 8.96875C10.913 8.96875 10.8895 8.93442 10.8895 8.90625C10.8895 8.87808 10.913 8.84375 10.9602 8.84375C11.0074 8.84375 11.0309 8.87808 11.0309 8.90625C11.0309 8.93442 11.0074 8.96875 10.9602 8.96875ZM15.243 8.96875C15.1958 8.96875 15.1723 8.93442 15.1723 8.90625C15.1723 8.87808 15.1958 8.84375 15.243 8.84375C15.2902 8.84375 15.3137 8.87808 15.3137 8.90625C15.3137 8.93442 15.2902 8.96875 15.243 8.96875Z" stroke="#fff" stroke-width="2"/>
<ellipse cx="10.5" cy="9" rx="5.5" ry="3" fill="#fff"/>
<circle cx="5.5" cy="9.5" r="1.5" fill="#fff"/>
<circle cx="10.5" cy="9.5" r="1.5" fill="#fff"/>
<circle cx="15.5" cy="9.5" r="1.5" fill="#fff"/>
</svg>
