<svg width="23" height="34" viewBox="0 0 23 34" fill="none" xmlns="http://www.w3.org/2000/svg">
<circle cx="12" cy="7" r="6" stroke="#fff" stroke-width="2"/>
<path d="M13.8707 13.5658C14.0309 13.0297 13.7265 12.4589 13.1752 12.3628C11.8333 12.129 10.4446 12.2155 9.11333 12.6217C7.45276 13.1284 5.94909 14.1119 4.77579 15.4588C3.60249 16.8056 2.80738 18.461 2.4822 20.2338C2.22042 21.661 2.27179 23.1174 2.62679 24.4938C2.76699 25.0374 3.36978 25.2889 3.88394 25.0635C4.3611 24.8544 4.58432 24.3092 4.46185 23.8028C4.20751 22.7511 4.17659 21.6433 4.37584 20.557C4.63213 19.1598 5.25881 17.8551 6.18357 16.7935C7.10833 15.732 8.29348 14.9568 9.60228 14.5574C10.5816 14.2586 11.6004 14.1793 12.5918 14.3199C13.1458 14.3985 13.7104 14.1019 13.8707 13.5658Z" fill="#fff"/>
<rect x="3" y="23" width="9" height="2" rx="1" fill="#fff"/>
<rect x="13" y="15" width="9" height="2" rx="1" fill="#fff"/>
<rect x="13" y="19" width="9" height="2" rx="1" fill="#fff"/>
<rect x="13" y="23" width="9" height="2" rx="1" fill="#fff"/>
</svg>
