<svg width="42" height="49" viewBox="0 0 42 49" fill="none" xmlns="http://www.w3.org/2000/svg">
<path d="M20.2851 40.525L21.0079 41.2812L21.7308 40.525L30.1154 31.7534C35.8684 32.2514 40.4524 37.2693 40.4524 43.5005V44.4171C40.4524 46.4381 38.8957 48.0002 37.0714 48.0002H4.94443C3.1201 48.0002 1.56348 46.4381 1.56348 44.4171V43.5005C1.56348 37.2693 6.14744 32.2514 11.9004 31.7534L20.2851 40.525ZM3.38887 7.87636V7.09193L2.62701 6.90513L2.04776 6.7631C1.67997 6.66826 1.56576 6.42853 1.56576 6.22453C1.56576 6.02005 1.6805 5.77968 2.05033 5.6853C2.05063 5.68522 2.05092 5.68515 2.05121 5.68507L19.4428 1.30359C19.4432 1.30349 19.4436 1.3034 19.444 1.3033C20.4707 1.04736 21.5539 1.04734 22.5807 1.30322C22.5812 1.30334 22.5817 1.30347 22.5821 1.30359L39.9568 5.69494C39.9568 5.69496 39.9569 5.69497 39.9569 5.69498C40.3371 5.7912 40.4478 6.03371 40.4478 6.2293C40.4478 6.42488 40.3372 6.66736 39.957 6.76359C39.957 6.76362 39.9569 6.76364 39.9568 6.76366L31.1683 8.97863L29.9781 9.27859L30.5124 10.3836C31.2484 11.9058 31.6905 13.591 31.6905 15.3907C31.6905 21.632 26.8664 26.6124 21.0079 26.6124C15.1495 26.6124 10.3254 21.632 10.3254 15.3907C10.3254 13.5939 10.7752 11.9073 11.5054 10.3795L12.0323 9.2772L10.8475 8.97863L4.82373 7.46047L3.57935 7.14685V8.43015V13.4525V14.0055L4.04772 14.2994C4.43083 14.5399 4.67459 14.9347 4.67459 15.3907C4.67459 15.8216 4.45315 16.1998 4.09242 16.4494L3.52965 16.8389L3.68896 17.5045L5.11193 23.4495C5.11203 23.4499 5.11212 23.4503 5.11221 23.4507C5.12048 23.4863 5.12364 23.5225 5.12241 23.557H1.84581C1.84458 23.5225 1.84774 23.4863 1.856 23.4507C1.8561 23.4503 1.85619 23.4499 1.85629 23.4495L3.27926 17.5045L3.43857 16.8389L2.87581 16.4494C2.51507 16.1998 2.29364 15.8216 2.29364 15.3907C2.29364 14.9347 2.53739 14.5399 2.92051 14.2994L3.38887 14.0055V13.4525V7.87636ZM5.09402 23.681C5.09401 23.681 5.09426 23.6806 5.09479 23.6798L5.09402 23.681ZM1.8742 23.681C1.8742 23.681 1.87392 23.6806 1.87341 23.6797L1.8742 23.681Z" stroke="white" stroke-width="2"/>
</svg>
