<svg width="36" height="36" viewBox="0 0 36 36" fill="none" xmlns="http://www.w3.org/2000/svg">
<rect width="36" height="36" rx="7" fill="white"/>
<path d="M23.125 10.5H20C20 9.12109 18.8789 8 17.5 8C16.1211 8 15 9.12109 15 10.5H11.875C10.8398 10.5 10 11.3398 10 12.375V26.125C10 27.1602 10.8398 28 11.875 28H23.125C24.1602 28 25 27.1602 25 26.125V12.375C25 11.3398 24.1602 10.5 23.125 10.5ZM13.75 24.5625C13.2305 24.5625 12.8125 24.1445 12.8125 23.625C12.8125 23.1055 13.2305 22.6875 13.75 22.6875C14.2695 22.6875 14.6875 23.1055 14.6875 23.625C14.6875 24.1445 14.2695 24.5625 13.75 24.5625ZM13.75 20.8125C13.2305 20.8125 12.8125 20.3945 12.8125 19.875C12.8125 19.3555 13.2305 18.9375 13.75 18.9375C14.2695 18.9375 14.6875 19.3555 14.6875 19.875C14.6875 20.3945 14.2695 20.8125 13.75 20.8125ZM13.75 17.0625C13.2305 17.0625 12.8125 16.6445 12.8125 16.125C12.8125 15.6055 13.2305 15.1875 13.75 15.1875C14.2695 15.1875 14.6875 15.6055 14.6875 16.125C14.6875 16.6445 14.2695 17.0625 13.75 17.0625ZM17.5 9.5625C18.0195 9.5625 18.4375 9.98047 18.4375 10.5C18.4375 11.0195 18.0195 11.4375 17.5 11.4375C16.9805 11.4375 16.5625 11.0195 16.5625 10.5C16.5625 9.98047 16.9805 9.5625 17.5 9.5625ZM22.5 23.9375C22.5 24.1094 22.3594 24.25 22.1875 24.25H16.5625C16.3906 24.25 16.25 24.1094 16.25 23.9375V23.3125C16.25 23.1406 16.3906 23 16.5625 23H22.1875C22.3594 23 22.5 23.1406 22.5 23.3125V23.9375ZM22.5 20.1875C22.5 20.3594 22.3594 20.5 22.1875 20.5H16.5625C16.3906 20.5 16.25 20.3594 16.25 20.1875V19.5625C16.25 19.3906 16.3906 19.25 16.5625 19.25H22.1875C22.3594 19.25 22.5 19.3906 22.5 19.5625V20.1875ZM22.5 16.4375C22.5 16.6094 22.3594 16.75 22.1875 16.75H16.5625C16.3906 16.75 16.25 16.6094 16.25 16.4375V15.8125C16.25 15.6406 16.3906 15.5 16.5625 15.5H22.1875C22.3594 15.5 22.5 15.6406 22.5 15.8125V16.4375Z" fill="black"/>
</svg>
