<svg width="26" height="26" viewBox="0 0 26 26" fill="none" xmlns="http://www.w3.org/2000/svg">
<path d="M13 24C19.0751 24 24 19.0751 24 13C24 6.92487 19.0751 2 13 2C6.92487 2 2 6.92487 2 13C2 19.0751 6.92487 24 13 24Z" stroke="#000" stroke-linecap="round" stroke-linejoin="round"/>
<path d="M8.85156 10.4292H17.0414C17.3943 10.4292 17.6328 10.6942 17.6328 10.9604V16.4604C17.6328 16.7267 17.3943 16.9917 17.0414 16.9917H8.50781C8.02448 16.9917 7.63281 16.6 7.63281 16.1167V9.2417C7.63281 8.75837 8.02448 8.3667 8.50781 8.3667H16.4141C16.6531 8.3667 16.8552 8.52455 16.922 8.7417H8.85156C8.3855 8.7417 8.00781 9.11939 8.00781 9.58545C8.00781 10.0515 8.3855 10.4292 8.85156 10.4292ZM14.8828 13.7104C14.8828 14.3662 15.4145 14.8979 16.0703 14.8979C16.7261 14.8979 17.2578 14.3662 17.2578 13.7104C17.2578 13.0547 16.7261 12.5229 16.0703 12.5229C15.4145 12.5229 14.8828 13.0547 14.8828 13.7104Z" stroke="#000"/>
</svg>
