<svg width="26" height="26" viewBox="0 0 26 26" fill="none" xmlns="http://www.w3.org/2000/svg">
<path d="M13 24C19.0751 24 24 19.0751 24 13C24 6.92487 19.0751 2 13 2C6.92487 2 2 6.92487 2 13C2 19.0751 6.92487 24 13 24Z" stroke="#000" stroke-linecap="round" stroke-linejoin="round"/>
<path d="M16.2096 9.7915L9.79297 16.2082" stroke="#000" stroke-linecap="round" stroke-linejoin="round"/>
<path d="M10.4798 11.6249C11.1126 11.6249 11.6257 11.1119 11.6257 10.4791C11.6257 9.84626 11.1126 9.33325 10.4798 9.33325C9.84699 9.33325 9.33398 9.84626 9.33398 10.4791C9.33398 11.1119 9.84699 11.6249 10.4798 11.6249Z" stroke="#000" stroke-linecap="round" stroke-linejoin="round"/>
<path d="M15.5208 16.6667C16.1537 16.6667 16.6667 16.1537 16.6667 15.5208C16.6667 14.888 16.1537 14.375 15.5208 14.375C14.888 14.375 14.375 14.888 14.375 15.5208C14.375 16.1537 14.888 16.6667 15.5208 16.6667Z" stroke="#000" stroke-linecap="round" stroke-linejoin="round"/>
</svg>
