<svg width="26" height="26" viewBox="0 0 26 26" fill="none" xmlns="http://www.w3.org/2000/svg">
<path d="M13 24C19.0751 24 24 19.0751 24 13C24 6.92487 19.0751 2 13 2C6.92487 2 2 6.92487 2 13C2 19.0751 6.92487 24 13 24Z" stroke="#000" stroke-linecap="round" stroke-linejoin="round"/>
<path d="M15.1337 6.57885C15.1856 6.43033 15.1075 6.26726 14.957 6.22143C13.5324 5.78759 12.0037 5.81876 10.5943 6.3147C9.09518 6.84221 7.82016 7.86415 6.97892 9.21249C6.13768 10.5608 5.78029 12.1553 5.96552 13.7337C6.15075 15.3121 6.86757 16.7805 7.99813 17.8975C9.12868 19.0144 10.6057 19.7134 12.1862 19.8795C13.7667 20.0456 15.3568 19.6689 16.6948 18.8114C18.0329 17.9539 19.0393 16.6666 19.5486 15.1612C20.0274 13.7459 20.0401 12.217 19.589 10.7977C19.5414 10.6478 19.3774 10.5716 19.2295 10.6253V10.6253C19.0816 10.679 19.0059 10.8423 19.053 10.9924C19.4603 12.2899 19.4463 13.6858 19.0089 14.9786C18.5411 16.3615 17.6165 17.544 16.3874 18.3317C15.1582 19.1195 13.6976 19.4655 12.2457 19.3129C10.7938 19.1603 9.43708 18.5182 8.39854 17.4922C7.36001 16.4661 6.70152 15.1172 6.53137 13.6673C6.36121 12.2174 6.68951 10.7527 7.46229 9.51407C8.23506 8.27548 9.40631 7.33671 10.7834 6.85213C12.0708 6.39913 13.4665 6.36826 14.7688 6.75974C14.9195 6.80503 15.0818 6.72736 15.1337 6.57885V6.57885Z" fill="#000"/>
<path d="M14.768 10.7177C14.8508 10.7177 14.918 10.6506 14.918 10.5677V10.0677C14.918 9.98489 14.8508 9.91772 14.768 9.91772H11.068C10.9851 9.91772 10.918 9.98489 10.918 10.0677V10.6271C10.918 10.7099 10.9851 10.7771 11.068 10.7771H12.134C12.4753 10.7771 12.7372 10.9015 12.8961 11.1177H11.068C10.9851 11.1177 10.918 11.1849 10.918 11.2677V11.7677C10.918 11.8506 10.9851 11.9177 11.068 11.9177H13.0524C12.9747 12.3688 12.6404 12.6506 12.118 12.6506H11.068C10.9851 12.6506 10.918 12.7178 10.918 12.8006V13.4633C10.918 13.5051 10.9355 13.5451 10.9662 13.5735L13.0294 15.478C13.0571 15.5035 13.0934 15.5177 13.1311 15.5177H14.1631C14.2997 15.5177 14.3652 15.3501 14.2649 15.2575L12.3789 13.5166C13.3351 13.4873 14.0182 12.8491 14.1078 11.9177H14.768C14.8508 11.9177 14.918 11.8506 14.918 11.7677V11.2677C14.918 11.1849 14.8508 11.1177 14.768 11.1177H14.0343C13.9908 10.9735 13.9308 10.8396 13.8562 10.7177H14.768Z" fill="#000"/>
<path d="M17.4508 6.4728L17.4959 6.19617C17.515 6.07903 17.6251 5.99976 17.7415 6.01936L20.1635 6.41335C20.2806 6.43244 20.3599 6.54257 20.3403 6.65898L19.9456 9.08143C19.9265 9.19857 19.8163 9.27784 19.6999 9.25824L19.4233 9.21316C19.3049 9.19387 19.2255 9.08052 19.2473 8.96254L19.5217 7.50227L17.4393 9.00117C17.3429 9.07054 17.2096 9.04881 17.1402 8.95244L16.9733 8.72058C16.9039 8.62421 16.9257 8.49088 17.022 8.42151L19.1045 6.92261L17.6326 6.71925C17.5131 6.70297 17.4308 6.59171 17.4508 6.4728Z" fill="#000"/>
</svg>
