<svg width="20" height="20" viewBox="0 0 20 20" fill="none" xmlns="http://www.w3.org/2000/svg">
<circle cx="10" cy="10" r="10" fill="#CEFFCE"/>
<path d="M13.5022 6.45312C12.567 5.51562 11.3214 5 9.99777 5C7.26562 5 5.04241 7.22321 5.04241 9.95536C5.04241 10.8281 5.27009 11.6808 5.70312 12.433L5 15L7.62723 14.3103C8.35045 14.7054 9.16518 14.9129 9.99554 14.9129H9.99777C12.7277 14.9129 15 12.6897 15 9.95759C15 8.63393 14.4375 7.39062 13.5022 6.45312ZM9.99777 14.0781C9.2567 14.0781 8.53125 13.8795 7.89955 13.5045L7.75 13.4152L6.19196 13.8237L6.60714 12.3036L6.50893 12.1473C6.09598 11.4911 5.87946 10.7344 5.87946 9.95536C5.87946 7.68527 7.72768 5.83705 10 5.83705C11.1004 5.83705 12.1339 6.26562 12.9107 7.04464C13.6875 7.82366 14.1652 8.85714 14.1629 9.95759C14.1629 12.2299 12.2679 14.0781 9.99777 14.0781ZM12.2567 10.9933C12.1339 10.9308 11.5246 10.6317 11.4107 10.5915C11.2969 10.5491 11.2143 10.529 11.1317 10.654C11.0491 10.779 10.8125 11.0558 10.7388 11.1406C10.6674 11.2232 10.5938 11.2344 10.471 11.1719C9.7433 10.808 9.26562 10.5223 8.78571 9.69866C8.65848 9.47991 8.91295 9.49554 9.14955 9.02232C9.18973 8.93973 9.16964 8.8683 9.13839 8.8058C9.10714 8.7433 8.85938 8.13393 8.7567 7.88616C8.65625 7.64509 8.55357 7.67857 8.47768 7.67411C8.40625 7.66964 8.32366 7.66964 8.24107 7.66964C8.15848 7.66964 8.02455 7.70089 7.91071 7.82366C7.79688 7.94866 7.47768 8.24777 7.47768 8.85714C7.47768 9.46652 7.92188 10.0558 7.98214 10.1384C8.04464 10.221 8.85491 11.471 10.0982 12.0089C10.8839 12.3482 11.192 12.3772 11.5848 12.3192C11.8237 12.2835 12.317 12.0201 12.4196 11.7299C12.5223 11.4397 12.5223 11.192 12.4911 11.1406C12.4621 11.0848 12.3795 11.0536 12.2567 10.9933Z" fill="#5DA55D"/>
</svg>
