<svg width="46" height="49" viewBox="0 0 46 49" fill="none" xmlns="http://www.w3.org/2000/svg">
<path d="M13.8069 32.7626H13.1831V43.2892C14.4306 42.5461 19.4553 42.9796 21.8117 43.2892C25.2215 44.2799 29.3313 43.702 30.96 43.2892L43.8508 36.1682C45.2647 32.1227 42.2915 31.3177 40.6281 31.4209L33.6629 35.2394C34.1619 33.0928 32.4847 32.1434 31.5837 31.937H25.5542C20.3147 29.0473 15.5395 31.2833 13.8069 32.7626Z" stroke="white" stroke-width="2"/>
<path d="M0.989258 29.9648H5.46149V46.9022L0.989258 47.8538" stroke="white"/>
<rect x="6.96436" y="31.4644" width="4.45373" height="13.3982" stroke="white" stroke-width="3"/>
<path d="M33.7877 34.4336C32.196 36.6835 28.4769 39.8334 26.334 34.4336" stroke="white" stroke-width="2"/>
<circle cx="23.3493" cy="13.5622" r="12.4167" stroke="white" stroke-width="2"/>
<path d="M27.488 9.51726C27.6732 9.51726 27.8234 9.35635 27.8234 9.15788V7.95996C27.8234 7.7615 27.6732 7.60059 27.488 7.60059H19.2143C19.0291 7.60059 18.8789 7.7615 18.8789 7.95996V9.30007C18.8789 9.49854 19.0291 9.65945 19.2143 9.65945H21.598C22.3613 9.65945 22.947 9.95767 23.3022 10.4756H19.2143C19.0291 10.4756 18.8789 10.6365 18.8789 10.835V12.0329C18.8789 12.2314 19.0291 12.3923 19.2143 12.3923H23.6518C23.478 13.473 22.7305 14.1482 21.5622 14.1482H19.2143C19.0291 14.1482 18.8789 14.3091 18.8789 14.5076V16.0952C18.8789 16.1955 18.918 16.2912 18.9868 16.3592L23.6003 20.922C23.6622 20.9833 23.7435 21.0173 23.8278 21.0173H26.1355C26.4408 21.0173 26.5874 20.6157 26.363 20.3938L22.1456 16.2228C24.2839 16.1527 25.8113 14.6237 26.0118 12.3923H27.488C27.6732 12.3923 27.8234 12.2314 27.8234 12.0329V10.835C27.8234 10.6365 27.6732 10.4756 27.488 10.4756H25.8475C25.75 10.13 25.6161 9.80937 25.4491 9.51726H27.488Z" fill="white"/>
</svg>
