<svg width="32" height="27" viewBox="0 0 32 27" fill="none" xmlns="http://www.w3.org/2000/svg">
<path d="M31.0002 2.36035V10.5422H22.8184" stroke="white" stroke-width="2" stroke-linecap="round" stroke-linejoin="round"/>
<path d="M1 24.1784V15.9966H9.18182" stroke="white" stroke-width="2" stroke-linecap="round" stroke-linejoin="round"/>
<path d="M4.42273 9.17859C5.11432 7.22421 6.28973 5.47687 7.83927 4.09962C9.38882 2.72237 11.262 1.76009 13.284 1.30258C15.3061 0.845071 17.411 0.907239 19.4025 1.48328C21.394 2.05933 23.2072 3.13047 24.6727 4.59677L31 10.5422M1 15.9968L7.32727 21.9422C8.79284 23.4085 10.606 24.4797 12.5975 25.0557C14.589 25.6318 16.6939 25.6939 18.716 25.2364C20.738 24.7789 22.6112 23.8166 24.1607 22.4394C25.7103 21.0621 26.8857 19.3148 27.5773 17.3604" stroke="white" stroke-width="2" stroke-linecap="round" stroke-linejoin="round"/>
</svg>
