<svg width="48" height="48" viewBox="0 0 48 48" fill="none" xmlns="http://www.w3.org/2000/svg">
<path d="M23.9978 46.2236C36.2728 46.2236 46.2236 36.2728 46.2236 23.9978C46.2236 11.7228 36.2728 1.772 23.9978 1.772C11.7228 1.772 1.772 11.7228 1.772 23.9978C1.772 36.2728 11.7228 46.2236 23.9978 46.2236Z" stroke="white" stroke-width="2"/>
<path d="M29.9211 16.628C30.215 16.628 30.4533 16.3804 30.4533 16.075V14.2317C30.4533 13.9263 30.215 13.6787 29.9211 13.6787H16.792C16.4981 13.6787 16.2598 13.9263 16.2598 14.2317V16.2938C16.2598 16.5992 16.4981 16.8468 16.792 16.8468H20.5746C21.7858 16.8468 22.7152 17.3057 23.2789 18.1027H16.792C16.4981 18.1027 16.2598 18.3503 16.2598 18.6557V20.499C16.2598 20.8044 16.4981 21.052 16.792 21.052H23.8337C23.5579 22.7149 22.3717 23.7539 20.5178 23.7539H16.792C16.4981 23.7539 16.2598 24.0015 16.2598 24.3069V26.7499C16.2598 26.9042 16.3219 27.0515 16.431 27.1562L23.7519 34.1772C23.8502 34.2715 23.9791 34.3239 24.1129 34.3239H27.7749C28.2594 34.3239 28.4919 33.706 28.1359 33.3645L21.4436 26.9463C24.8367 26.8384 27.2604 24.4857 27.5786 21.052H29.9211C30.215 21.052 30.4533 20.8044 30.4533 20.499V18.6557C30.4533 18.3503 30.215 18.1027 29.9211 18.1027H27.3179C27.1633 17.5708 26.9506 17.0775 26.6857 16.628H29.9211Z" fill="white"/>
</svg>
